<?xml version="1.0" encoding="UTF-8" ?>
<!DOCTYPE svg PUBLIC "-//W3C//DTD SVG 1.1//EN" "http://www.w3.org/Graphics/SVG/1.1/DTD/svg11.dtd">
<svg width="483pt" height="404pt" viewBox="0 0 483 404" version="1.1" xmlns="http://www.w3.org/2000/svg">
<g id="#ffffffff">
<path fill="#ffffff" opacity="1.00" d=" M 157.11 4.06 C 160.00 2.68 163.01 1.51 166.16 0.86 C 152.28 12.35 141.19 26.94 132.81 42.83 C 124.02 59.89 119.14 78.82 117.65 97.91 C 115.74 130.36 124.06 162.74 137.83 191.95 C 145.66 208.77 155.03 224.87 165.63 240.09 C 166.22 241.12 167.36 242.18 166.79 243.48 C 164.33 251.80 162.58 260.32 161.67 268.94 C 161.30 273.17 161.44 277.44 160.68 281.63 L 159.87 281.69 C 159.55 280.08 159.20 278.49 158.71 276.93 C 151.24 254.22 138.80 233.00 121.71 216.20 C 117.96 212.28 113.61 208.97 110.02 204.89 C 92.09 184.80 80.80 159.37 75.91 133.01 C 69.59 98.06 76.62 61.34 93.28 30.16 C 93.95 28.76 94.64 27.39 95.30 25.99 C 95.27 27.47 94.55 28.81 94.10 30.19 C 84.25 55.64 81.02 85.48 93.05 110.78 C 99.73 86.59 107.68 62.40 120.85 40.86 C 129.72 25.99 141.25 11.78 157.11 4.06 Z" />
<path fill="#ffffff" opacity="1.00" d=" M 383.96 4.09 C 399.94 21.86 412.72 42.87 419.65 65.83 C 423.54 79.18 425.50 93.14 425.18 107.05 C 424.44 120.38 422.05 133.65 417.13 146.10 C 422.21 140.88 425.97 134.58 429.16 128.08 C 434.29 116.98 437.20 104.99 438.68 92.89 C 438.88 91.18 439.20 89.48 439.66 87.83 C 439.58 91.19 439.40 94.56 439.45 97.93 C 439.69 123.76 433.76 149.72 421.58 172.56 C 413.72 187.59 402.99 201.01 390.95 212.90 C 364.00 239.25 330.48 257.12 298.68 276.76 C 288.26 282.93 279.43 291.40 271.41 300.39 C 263.28 309.88 255.76 319.93 249.39 330.70 C 244.67 330.49 239.94 330.56 235.21 330.62 C 240.37 316.85 247.19 303.66 255.87 291.79 C 273.39 267.73 297.64 249.90 321.53 232.67 C 344.72 215.90 368.14 198.29 384.66 174.54 C 404.47 146.91 411.80 111.48 407.55 78.02 C 407.39 74.29 406.48 70.66 406.09 66.96 C 402.78 50.15 397.96 33.58 390.82 17.97 C 388.81 13.20 386.09 8.79 383.96 4.09 Z" />
<path fill="#ffffff" opacity="1.00" d=" M 388.55 84.40 L 389.24 84.16 C 389.45 84.35 389.86 84.71 390.07 84.90 L 390.41 85.33 C 390.55 87.98 391.42 90.50 391.95 93.08 C 396.14 110.49 395.71 129.27 389.28 146.09 C 383.79 160.45 375.01 173.38 364.59 184.61 C 332.71 219.48 289.66 241.93 258.51 277.54 C 252.30 285.05 246.66 293.02 241.07 301.01 C 234.91 310.22 229.08 319.83 225.66 330.44 L 224.58 331.26 C 223.32 308.25 230.59 285.69 240.49 265.20 C 251.33 243.62 264.79 223.07 282.28 206.26 C 293.19 195.21 305.93 186.17 319.10 178.03 C 335.10 168.17 352.62 160.40 366.69 147.69 C 378.16 137.60 384.80 123.03 387.35 108.15 C 388.87 101.19 388.53 94.04 389.21 86.99 C 388.59 86.27 388.37 85.40 388.55 84.40 Z" />
<path fill="#ffffff" opacity="1.00" d=" M 56.90 121.12 L 58.34 121.15 C 59.31 146.66 69.24 171.61 85.80 191.01 C 95.57 202.96 108.75 211.44 119.04 222.89 C 136.74 241.27 151.13 263.04 159.80 287.10 C 162.35 293.08 161.76 299.76 163.59 305.95 C 158.89 300.15 154.66 293.96 149.56 288.49 C 137.70 274.99 123.81 263.38 109.10 253.11 C 87.35 236.75 68.56 215.17 59.59 189.15 C 52.37 168.99 51.60 146.86 55.95 126.00 C 56.33 124.38 56.61 122.74 56.90 121.12 Z" />
<path fill="#ffffff" opacity="1.00" d=" M 128.29 140.87 C 128.47 140.86 128.82 140.82 129.00 140.81 C 142.20 145.09 155.67 148.51 169.01 152.33 C 183.05 148.08 199.02 145.22 212.80 151.91 C 220.71 155.43 226.09 162.41 231.37 168.95 C 236.46 171.73 243.19 172.05 248.43 169.33 C 253.61 166.78 259.66 165.79 265.30 167.28 C 261.90 168.22 257.83 168.40 255.51 171.45 C 252.89 174.94 249.45 177.70 245.62 179.77 C 245.18 180.25 244.75 180.73 244.32 181.21 C 248.56 181.63 252.87 182.05 257.12 181.41 C 260.04 180.45 261.98 177.60 265.09 177.13 C 268.88 175.98 272.79 177.50 276.55 177.98 C 272.92 178.77 269.22 179.74 266.26 182.10 C 262.01 184.89 260.33 190.39 255.61 192.60 C 250.29 195.23 244.15 194.78 238.44 194.03 C 236.86 202.06 236.81 210.91 240.83 218.27 C 243.32 222.76 247.83 225.70 252.74 226.91 C 236.50 247.01 224.84 270.79 219.03 295.97 C 218.64 297.63 218.37 299.30 218.05 300.97 C 216.12 310.98 215.27 321.21 215.44 331.40 C 211.31 331.74 207.12 331.36 203.04 332.18 C 198.78 332.58 194.47 332.43 190.26 333.26 C 187.53 333.48 184.80 333.70 182.06 333.75 C 174.63 321.08 170.17 306.75 169.06 292.10 C 167.74 273.17 169.98 253.67 177.61 236.16 C 182.09 226.75 186.39 216.55 185.49 205.91 C 182.67 191.84 172.87 180.71 163.41 170.51 C 152.54 159.68 140.65 149.95 128.29 140.87 M 184.96 163.96 C 188.10 170.24 196.24 169.92 202.01 168.00 C 198.72 166.92 195.63 165.35 192.69 163.54 C 190.30 161.82 187.48 163.62 184.96 163.96 Z" />
<path fill="#ffffff" opacity="1.00" d=" M 145.88 169.01 C 156.26 175.94 164.96 186.98 165.32 199.91 C 165.29 209.99 168.33 219.71 171.38 229.22 C 172.22 231.45 170.28 233.42 169.72 235.47 C 161.91 228.31 154.76 219.72 151.85 209.34 C 150.02 203.24 152.55 197.15 153.03 191.06 C 153.44 183.16 150.86 175.19 145.88 169.01 Z" />
<path fill="#ffffff" opacity="1.00" d=" M 429.44 180.18 C 429.64 179.11 429.85 178.05 430.08 177.00 C 430.21 178.34 430.37 179.74 429.77 181.01 C 427.09 202.97 418.68 224.33 404.97 241.76 C 384.30 268.52 354.53 286.67 323.63 299.38 C 304.53 306.37 287.20 317.72 272.30 331.49 C 266.77 331.37 261.26 331.14 255.76 330.55 C 272.78 306.97 295.42 287.01 322.02 274.96 C 338.11 268.60 353.32 260.21 367.89 250.93 C 390.93 235.48 412.23 215.95 424.75 190.81 C 426.65 187.41 427.50 183.54 429.44 180.18 Z" />
<path fill="#ffffff" opacity="1.00" d=" M 80.25 236.89 C 83.20 243.17 88.09 248.18 93.47 252.44 C 107.61 263.75 122.97 273.48 136.82 285.17 C 147.51 294.79 155.29 307.10 162.26 319.55 C 164.97 324.97 168.16 330.24 169.88 336.08 C 167.45 335.43 166.37 333.05 164.86 331.29 C 155.94 320.75 144.70 312.46 132.88 305.45 C 125.10 300.75 116.57 297.31 109.31 291.75 C 91.85 279.31 79.49 258.73 80.25 236.89 Z" />
<path fill="#ffffff" opacity="1.00" d=" M 396.85 268.78 C 400.60 266.60 403.95 263.83 407.47 261.31 C 407.25 261.62 406.82 262.25 406.60 262.57 C 405.26 267.66 403.26 272.61 400.43 277.07 C 396.40 283.53 388.63 285.86 381.75 287.89 C 378.94 288.75 376.10 289.60 373.15 289.77 C 375.92 284.04 379.94 278.92 384.98 275.01 C 388.56 272.26 393.06 271.19 396.85 268.78 Z" />
<path fill="#ffffff" opacity="1.00" d=" M 409.19 276.18 C 409.83 275.32 410.51 274.49 411.17 273.63 C 411.22 273.70 411.33 273.84 411.38 273.91 C 408.19 282.21 403.88 290.19 397.72 296.69 C 384.91 310.54 366.57 318.04 348.09 320.34 C 333.01 321.98 318.19 325.96 304.39 332.26 C 299.32 335.02 293.58 332.17 288.19 332.48 C 296.14 325.15 304.85 318.63 314.06 312.97 C 326.50 305.17 340.75 300.73 355.11 298.10 C 366.53 295.82 378.30 295.03 389.39 291.26 C 397.40 288.60 404.71 283.43 409.19 276.18 Z" />
<path fill="#ffffff" opacity="1.00" d=" M 126.96 350.44 C 175.77 339.49 226.15 336.45 276.03 339.06 C 326.30 341.77 376.35 351.65 423.33 369.88 C 444.21 378.44 464.77 388.24 483.00 401.69 L 483.00 402.16 C 473.29 397.98 464.04 392.75 454.13 388.99 C 407.73 370.56 358.46 360.11 308.85 355.40 C 277.68 352.06 246.29 351.91 214.98 352.66 C 167.93 355.02 120.80 361.06 75.44 374.16 C 51.09 381.20 26.94 389.52 4.50 401.45 C 3.32 402.06 2.37 403.03 1.47 404.00 L 0.00 404.00 L 0.00 403.50 C 14.39 392.62 30.32 383.90 46.83 376.67 C 72.40 364.81 99.59 356.90 126.96 350.44 Z" />
</g>
</svg>
