<svg height="512" viewBox="0 0 64 64" width="512" xmlns="http://www.w3.org/2000/svg"><g id="_01_Credir_Card_Payment" data-name="01 Credir Card Payment"><path d="m58 14h-26a1 1 0 0 0 -1 1v30a1 1 0 0 0 1 1h26a3 3 0 0 0 3-3v-26a3 3 0 0 0 -3-3z" fill="#ffb74f"/><path d="m53 34a3.969 3.969 0 0 0 -2.671 1.029 1 1 0 0 0 .014 1.495 1.986 1.986 0 0 1 0 2.952 1 1 0 0 0 -.014 1.495 4 4 0 1 0 2.671-6.971z" fill="#ffe670"/><path d="m51.671 35.029a3.986 3.986 0 1 0 1.329 2.971 3.969 3.969 0 0 0 -1.329-2.971z" fill="#ff633e"/><path d="m34 36h-2a1 1 0 0 1 0-2h2a1 1 0 0 1 0 2z" fill="#57555c"/><path d="m42 36h-4a1 1 0 0 1 0-2h4a1 1 0 0 1 0 2z" fill="#57555c"/><path d="m42 42h-10a1 1 0 0 1 0-2h10a1 1 0 0 1 0 2z" fill="#57555c"/><path d="m31 18h30v8h-30z" fill="#57555c"/><g fill="#8b8992"><path d="m37.42 18-6.42 6.41v-2.82l3.58-3.59z"/><path d="m43.42 18-8 8h-2.84l8-8z"/><path d="m49.42 18-8 8h-2.84l8-8z"/><path d="m55.42 18-8 8h-2.84l8-8z"/><path d="m61 18v.42l-7.58 7.58h-2.84l8-8z"/><path d="m37.42 18-6.42 6.41v-2.82l3.58-3.59z"/><path d="m43.42 18-8 8h-2.84l8-8z"/><path d="m49.42 18-8 8h-2.84l8-8z"/><path d="m55.42 18-8 8h-2.84l8-8z"/><path d="m61 18v.42l-7.58 7.58h-2.84l8-8z"/></g><rect fill="#fafbfb" height="42" rx="1" width="30" x="3" y="9"/><path d="m28 3h-20a5.006 5.006 0 0 0 -5 5v48a5.006 5.006 0 0 0 5 5h20a5.006 5.006 0 0 0 5-5v-48a5.006 5.006 0 0 0 -5-5zm-23 8h26v38h-26z" fill="#00a6ff"/><path d="m23 8h-1a1 1 0 0 1 0-2h1a1 1 0 0 1 0 2z" fill="#006ef5"/><path d="m18 8h-5a1 1 0 0 1 0-2h5a1 1 0 0 1 0 2z" fill="#006ef5"/><circle cx="18" cy="55" fill="#006ef5" r="3"/><path d="m26 56h-2a1 1 0 0 1 0-2h2a1 1 0 0 1 0 2z" fill="#006ef5"/><path d="m12 56h-2a1 1 0 0 1 0-2h2a1 1 0 0 1 0 2z" fill="#006ef5"/><path d="m28.77 27.792a10.865 10.865 0 0 0 -1.97-4.392c-.021-.027-.051-.041-.073-.065a.751.751 0 0 0 -.058-.078 1.262 1.262 0 0 0 -.437-.216 1.022 1.022 0 0 0 -.376-.017 1.066 1.066 0 0 0 -.183.046.966.966 0 0 0 -.181.086c-.029.018-.064.023-.092.044s-.041.051-.065.073a.751.751 0 0 0 -.078.058l-8.3 9.216-4.255-4.254a1 1 0 0 0 -1.414 1.414l5 5a1 1 0 0 0 .712.293h.026a1 1 0 0 0 .717-.331l8.122-9.024a8.907 8.907 0 0 1 .948 2.556 8.577 8.577 0 0 1 .187 1.799 9.01 9.01 0 1 1 -4.5-7.787 1 1 0 1 0 1.01-1.726 11 11 0 1 0 5.49 9.513 10.5 10.5 0 0 0 -.23-2.208z" fill="#ffa91f"/></g></svg>