<svg height="512" viewBox="0 0 64 64" width="512" xmlns="http://www.w3.org/2000/svg"><g id="_02_Credit_Card_2_Sides" data-name="02 Credit Card 2 Sides"><rect fill="#ffb74f" height="32" rx="3" width="52" x="9" y="10"/><rect fill="#00a6ff" height="32" rx="3" width="52" x="3" y="24"/><rect fill="#ffdf47" height="10" rx="3" width="12" x="7" y="28"/><path d="m12 28v4h-5v2h5v4h2v-10z" fill="#d9a600"/><path d="m19 32h-2a1 1 0 0 0 0 2h2z" fill="#d9a600"/><path d="m12 46h-4a1 1 0 0 1 0-2h4a1 1 0 0 1 0 2z" fill="#57555c"/><path d="m20 46h-4a1 1 0 0 1 0-2h4a1 1 0 0 1 0 2z" fill="#57555c"/><path d="m28 46h-4a1 1 0 0 1 0-2h4a1 1 0 0 1 0 2z" fill="#57555c"/><path d="m36 46h-4a1 1 0 0 1 0-2h4a1 1 0 0 1 0 2z" fill="#57555c"/><path d="m36 52h-28a1 1 0 0 1 0-2h28a1 1 0 0 1 0 2z" fill="#57555c"/><path d="m47 28a3.969 3.969 0 0 0 -2.671 1.029 1 1 0 0 0 .014 1.5 1.986 1.986 0 0 1 0 2.952 1 1 0 0 0 -.014 1.495 4 4 0 1 0 2.671-6.976z" fill="#ffe670"/><path d="m45.671 29.029a3.986 3.986 0 1 0 1.329 2.971 3.969 3.969 0 0 0 -1.329-2.971z" fill="#ff633e"/><path d="m9 14h52v8h-52z" fill="#57555c"/><g fill="#8b8992"><path d="m19.42 14-8 8h-2.42v-.42l7.58-7.58z"/><path d="m25.42 14-8 8h-2.84l8-8z"/><path d="m31.42 14-8 8h-2.84l8-8z"/><path d="m37 14v.42l-7.58 7.58h-2.84l8-8z"/><path d="m43.42 14-8 8h-2.84l8-8z"/><path d="m49.42 14-8 8h-2.84l8-8z"/><path d="m55.42 14-8 8h-2.84l8-8z"/><path d="m61 14v.42l-7.58 7.58h-2.84l8-8z"/></g></g></svg>