<svg height="512" viewBox="0 0 64 64" width="512" xmlns="http://www.w3.org/2000/svg"><g id="_03_Money_and_Credit_Card" data-name="03 Money and Credit Card"><rect fill="#00a6ff" height="32" rx="3" width="52" x="6" y="29"/><rect fill="#ffdf47" height="10" rx="3" width="12" x="10" y="33"/><path d="m15 33v4h-5v2h5v4h2v-10z" fill="#d9a600"/><path d="m22 37h-2a1 1 0 0 0 0 2h2z" fill="#d9a600"/><g fill="#57555c"><path d="m15 51h-4a1 1 0 0 1 0-2h4a1 1 0 0 1 0 2z"/><path d="m23 51h-4a1 1 0 0 1 0-2h4a1 1 0 0 1 0 2z"/><path d="m31 51h-4a1 1 0 0 1 0-2h4a1 1 0 0 1 0 2z"/><path d="m39 51h-4a1 1 0 0 1 0-2h4a1 1 0 0 1 0 2z"/><path d="m39 57h-28a1 1 0 0 1 0-2h28a1 1 0 0 1 0 2z"/></g><path d="m50 33a3.969 3.969 0 0 0 -2.671 1.029 1 1 0 0 0 .014 1.495 1.986 1.986 0 0 1 0 2.952 1 1 0 0 0 -.014 1.495 4 4 0 1 0 2.671-6.971z" fill="#ffe670"/><path d="m48.671 34.029a3.986 3.986 0 1 0 1.329 2.971 3.969 3.969 0 0 0 -1.329-2.971z" fill="#ff633e"/><circle cx="32" cy="25" fill="#ffdf47" r="10"/><circle cx="13" cy="13" fill="#ffdf47" r="10"/><circle cx="51" cy="13" fill="#ffdf47" r="10"/><path d="m33 24h-2a1 1 0 0 1 0-2h3a1 1 0 0 0 0-2h-1a1 1 0 0 0 -2 0 3 3 0 0 0 0 6h2a1 1 0 0 1 0 2h-3a1 1 0 0 0 0 2h1a1 1 0 0 0 2 0 3 3 0 0 0 0-6z" fill="#ffa91f"/><path d="m14 12h-2a1 1 0 0 1 0-2h3a1 1 0 0 0 0-2h-1a1 1 0 0 0 -2 0 3 3 0 0 0 0 6h2a1 1 0 0 1 0 2h-3a1 1 0 0 0 0 2h1a1 1 0 0 0 2 0 3 3 0 0 0 0-6z" fill="#ffa91f"/><path d="m52 12h-2a1 1 0 0 1 0-2h3a1 1 0 0 0 0-2h-1a1 1 0 0 0 -2 0 3 3 0 0 0 0 6h2a1 1 0 0 1 0 2h-3a1 1 0 0 0 0 2h1a1 1 0 0 0 2 0 3 3 0 0 0 0-6z" fill="#ffa91f"/></g></svg>