<svg height="512" viewBox="0 0 64 64" width="512" xmlns="http://www.w3.org/2000/svg"><g id="_04_Money_and_Credit_Card" data-name="04 Money and Credit Card"><path d="m59 5h-48a2 2 0 0 0 -2 2v21a1 1 0 0 0 1 1h42a1 1 0 0 1 1 1v2a1 1 0 0 0 1 1h5a2 2 0 0 0 2-2v-24a2 2 0 0 0 -2-2z" fill="#00c379"/><path d="m56 13a3 3 0 0 1 -3-3 1 1 0 0 0 -1-1h-34a1 1 0 0 0 -1 1 3 3 0 0 1 -3 3 1 1 0 0 0 -1 1v10a1 1 0 0 0 1 1 3 3 0 0 1 3 3 1 1 0 0 0 1 1h34a1 1 0 0 0 1-1 3 3 0 0 1 3-3 1 1 0 0 0 1-1v-10a1 1 0 0 0 -1-1z" fill="#c7eeda"/><path d="m36 18h-2a1 1 0 0 1 0-2h3a1 1 0 0 0 0-2h-1a1 1 0 0 0 -2 0 3 3 0 0 0 0 6h2a1 1 0 0 1 0 2h-3a1 1 0 0 0 0 2h1a1 1 0 0 0 2 0 3 3 0 0 0 0-6z" fill="#00c379"/><path d="m46 20h-4a1 1 0 0 1 0-2h4a1 1 0 0 1 0 2z" fill="#00c379"/><path d="m28 20h-4a1 1 0 0 1 0-2h4a1 1 0 0 1 0 2z" fill="#00c379"/><rect fill="#00a6ff" height="32" rx="3" width="52" x="3" y="27"/><rect fill="#ffdf47" height="10" rx="3" width="12" x="7" y="31"/><path d="m12 31v4h-5v2h5v4h2v-10z" fill="#d9a600"/><path d="m19 35h-2a1 1 0 0 0 0 2h2z" fill="#d9a600"/><g fill="#57555c"><path d="m12 49h-4a1 1 0 0 1 0-2h4a1 1 0 0 1 0 2z"/><path d="m20 49h-4a1 1 0 0 1 0-2h4a1 1 0 0 1 0 2z"/><path d="m28 49h-4a1 1 0 0 1 0-2h4a1 1 0 0 1 0 2z"/><path d="m36 49h-4a1 1 0 0 1 0-2h4a1 1 0 0 1 0 2z"/><path d="m36 55h-28a1 1 0 0 1 0-2h28a1 1 0 0 1 0 2z"/></g><path d="m47 31a3.969 3.969 0 0 0 -2.671 1.029 1 1 0 0 0 .014 1.495 1.986 1.986 0 0 1 0 2.952 1 1 0 0 0 -.014 1.495 4 4 0 1 0 2.671-6.971z" fill="#ffe670"/><path d="m45.671 32.029a3.986 3.986 0 1 0 1.329 2.971 3.969 3.969 0 0 0 -1.329-2.971z" fill="#ff633e"/></g></svg>