<svg height="512" viewBox="0 0 64 64" width="512" xmlns="http://www.w3.org/2000/svg"><g id="_05_E-Wallet" data-name="05 E-Wallet"><rect fill="#fafbfb" height="42" rx="1" width="30" x="5" y="9"/><path d="m30 3h-20a5.006 5.006 0 0 0 -5 5v48a5.006 5.006 0 0 0 5 5h20a5.006 5.006 0 0 0 5-5v-48a5.006 5.006 0 0 0 -5-5zm-23 8h26v38h-26z" fill="#00a6ff"/><path d="m47 21.48v.52a1 1 0 0 1 -1 1h-28a3.009 3.009 0 0 1 -3-3 3.046 3.046 0 0 1 .89-2.13 2.954 2.954 0 0 1 2.11-.87h23.52a1.01 1.01 0 0 1 .83.44 7.974 7.974 0 0 0 3.98 3.1.949.949 0 0 1 .54.46.912.912 0 0 1 .13.48z" fill="#ff9a00"/><g fill="#006ef5"><path d="m25 8h-1a1 1 0 0 1 0-2h1a1 1 0 0 1 0 2z"/><path d="m20 8h-5a1 1 0 0 1 0-2h5a1 1 0 0 1 0 2z"/><circle cx="20" cy="55" r="3"/><path d="m28 56h-2a1 1 0 0 1 0-2h2a1 1 0 0 1 0 2z"/><path d="m14 56h-2a1 1 0 0 1 0-2h2a1 1 0 0 1 0 2z"/></g><path d="m37 29v10h13a1 1 0 0 1 1 1v5a2.006 2.006 0 0 1 -2 2h-31a3.009 3.009 0 0 1 -3-3v-24a2.866 2.866 0 0 1 .18-1.01 2.986 2.986 0 0 0 2.82 2.01h31a2.006 2.006 0 0 1 2 2v5a1 1 0 0 1 -1 1z" fill="#ffb74f"/><rect fill="#57555c" height="14" rx="2" width="18" x="35" y="27"/><circle cx="45" cy="34" fill="#ffdf47" r="3"/><circle cx="49" cy="13" fill="#ffdf47" r="10"/><path d="m50 12h-2a1 1 0 0 1 0-2h3a1 1 0 0 0 0-2h-1a1 1 0 0 0 -2 0 3 3 0 0 0 0 6h2a1 1 0 0 1 0 2h-3a1 1 0 0 0 0 2h1a1 1 0 0 0 2 0 3 3 0 0 0 0-6z" fill="#ffa91f"/></g></svg>