<svg height="512" viewBox="0 0 64 64" width="512" xmlns="http://www.w3.org/2000/svg"><g id="_06_Payment" data-name="06 Payment"><path d="m57 9h-18a1 1 0 0 0 -1 1v44a1 1 0 0 0 1 1h18a3 3 0 0 0 3-3v-40a3 3 0 0 0 -3-3z" fill="#ffb74f"/><path d="m49 51a1 1 0 0 1 -1-1v-4a1 1 0 0 1 2 0v4a1 1 0 0 1 -1 1z" fill="#57555c"/><path d="m49 43a1 1 0 0 1 -1-1v-4a1 1 0 0 1 2 0v4a1 1 0 0 1 -1 1z" fill="#57555c"/><path d="m49 35a1 1 0 0 1 -1-1v-4a1 1 0 0 1 2 0v4a1 1 0 0 1 -1 1z" fill="#57555c"/><path d="m55 51a1 1 0 0 1 -1-1v-20a1 1 0 0 1 2 0v20a1 1 0 0 1 -1 1z" fill="#57555c"/><path d="m52 13a3.995 3.995 0 0 0 -2.971 6.671 1.089 1.089 0 0 0 .751.329 1 1 0 0 0 .744-.343 2.053 2.053 0 0 1 2.952 0 1 1 0 0 0 .744.343h.01a1 1 0 0 0 .741-.329 3.995 3.995 0 0 0 -2.971-6.671z" fill="#ffe670"/><path d="m54.984 18.343a4 4 0 0 0 -6.984 2.657 4 4 0 0 0 8 0 3.959 3.959 0 0 0 -1.016-2.657z" fill="#ff633e"/><rect fill="#00a6ff" height="58" rx="7" width="36" x="4" y="3"/><rect fill="#fafbfb" height="20" rx="2" width="28" x="8" y="9"/><g fill="#57555c"><rect height="6" rx="2" width="8" x="8" y="33"/><rect height="6" rx="2" width="8" x="18" y="33"/><rect height="6" rx="2" width="8" x="28" y="33"/><rect height="6" rx="2" width="8" x="8" y="41"/><rect height="6" rx="2" width="8" x="18" y="41"/><rect height="6" rx="2" width="8" x="28" y="41"/></g><rect fill="#ff633e" height="6" rx="2" width="8" x="8" y="49"/><rect fill="#ffa91f" height="6" rx="2" width="18" x="18" y="49"/><path d="m26.8 15.4c-.014-.019-.036-.028-.051-.046s-.021-.04-.038-.057a40.07 40.07 0 0 0 -.276-.183.928.928 0 0 0 -.175-.06.953.953 0 0 0 -.19-.037 1.055 1.055 0 0 0 -.186.01 1 1 0 0 0 -.187.037.931.931 0 0 0 -.18.087.9.9 0 0 0 -.117.057c-.019.014-.028.035-.046.051s-.04.021-.057.038l-3.297 3.289-.293-.293a1 1 0 0 0 -1.414 1.414l1 1a1 1 0 0 0 1.414 0l3.056-3.056a3.994 3.994 0 0 1 -3.763 5.349 3.84 3.84 0 0 1 -1.722-.394 4 4 0 0 1 1.722-7.606h.132a1 1 0 0 0 .385-1.962 2.625 2.625 0 0 0 -.517-.038 6 6 0 0 0 -2.592 11.407 5.82 5.82 0 0 0 2.592.593 6.006 6.006 0 0 0 6-6 5.9 5.9 0 0 0 -1.2-3.6z" fill="#ffa91f"/></g></svg>