<svg height="512" viewBox="0 0 64 64" width="512" xmlns="http://www.w3.org/2000/svg"><g id="_07_Payment" data-name="07 Payment"><path d="m32 52a1 1 0 0 0 -1-1h-20a1 1 0 0 0 -1 1v7a2 2 0 0 0 2 2h18a2 2 0 0 0 2-2z" fill="#ffb74f"/><path d="m28 52a1 1 0 0 0 -1-1h-4a1 1 0 0 0 -1 1v9h6z" fill="#57555c"/><path d="m29.526 3.149a1 1 0 0 0 -.973-.044l-3.553 1.777-3.553-1.777a1 1 0 0 0 -.894 0l-3.553 1.777-3.553-1.777a1 1 0 0 0 -1.447.895v10a1 1 0 0 0 1 1h16a1 1 0 0 0 1-1v-10a1 1 0 0 0 -.474-.851z" fill="#e1e1e3"/><rect fill="#00a6ff" height="40" rx="5" width="30" x="6" y="13"/><rect fill="#fafbfb" height="14" rx="2" width="22" x="10" y="19"/><path d="m19.5 29a1 1 0 0 1 -.707-.293l-1-1a1 1 0 0 1 1.414-1.414l.293.293 3.293-3.293a1 1 0 0 1 1.414 1.414l-4 4a1 1 0 0 1 -.707.293z" fill="#ffa91f"/><g fill="#57555c"><path d="m15 39h-4a1 1 0 0 1 0-2h4a1 1 0 0 1 0 2z"/><path d="m31 39h-4a1 1 0 0 1 0-2h4a1 1 0 0 1 0 2z"/><path d="m23 39h-4a1 1 0 0 1 0-2h4a1 1 0 0 1 0 2z"/><path d="m15 43h-4a1 1 0 0 1 0-2h4a1 1 0 0 1 0 2z"/><path d="m31 43h-4a1 1 0 0 1 0-2h4a1 1 0 0 1 0 2z"/><path d="m23 43h-4a1 1 0 0 1 0-2h4a1 1 0 0 1 0 2z"/></g><path d="m15 47h-4a1 1 0 0 1 0-2h4a1 1 0 0 1 0 2z" fill="#ff633e"/><path d="m31 47h-12a1 1 0 0 1 0-2h12a1 1 0 0 1 0 2z" fill="#ffa91f"/><path d="m20 11h-3a1 1 0 0 1 0-2h3a1 1 0 0 1 0 2z" fill="#c8c6cc"/><path d="m25 11h-1a1 1 0 0 1 0-2h1a1 1 0 0 1 0 2z" fill="#c8c6cc"/><circle cx="48" cy="32" fill="#ffdf47" r="10"/><path d="m49 31h-2a1 1 0 0 1 0-2h3a1 1 0 0 0 0-2h-1a1 1 0 0 0 -2 0 3 3 0 0 0 0 6h2a1 1 0 0 1 0 2h-3a1 1 0 0 0 0 2h1a1 1 0 0 0 2 0 3 3 0 0 0 0-6z" fill="#ffa91f"/></g></svg>