<svg height="512" viewBox="0 0 64 64" width="512" xmlns="http://www.w3.org/2000/svg"><g id="_08_Credit_Card_Top_Up" data-name="08 Credit Card Top Up"><path d="m55 28h-9.14a1 1 0 0 0 -.866.5 14.843 14.843 0 0 1 -2.788 3.5h-20.413a14.81 14.81 0 0 1 -2.786-3.5 1 1 0 0 0 -.867-.5h-9.14a3 3 0 0 0 -3 3v26a3 3 0 0 0 3 3h46a3 3 0 0 0 3-3v-26a3 3 0 0 0 -3-3z" fill="#00a6ff"/><circle cx="32" cy="21" fill="#ffa91f" r="17"/><path d="m48.97 22c.02-.33.03-.66.03-1s-.01-.67-.03-1h-4.02a13.022 13.022 0 0 0 -1.24-4.61l3.48-2a16.667 16.667 0 0 0 -1-1.74l-3.47 2.01a13.244 13.244 0 0 0 -3.38-3.38l2.01-3.47a16.667 16.667 0 0 0 -1.74-1l-2 3.48a13.022 13.022 0 0 0 -4.61-1.24v-4.02c-.33-.02-.66-.03-1-.03s-.67.01-1 .03v4.02a13.022 13.022 0 0 0 -4.61 1.24l-2-3.48a16.667 16.667 0 0 0 -1.74 1l2.01 3.47a13.244 13.244 0 0 0 -3.38 3.38l-3.47-2.01a16.667 16.667 0 0 0 -1 1.74l3.48 2a13.022 13.022 0 0 0 -1.24 4.61h-4.02c-.02.33-.03.66-.03 1s.01.67.03 1h4.02a13.022 13.022 0 0 0 1.24 4.61l-3.48 2a16.667 16.667 0 0 0 1 1.74l3.47-2.01a13.244 13.244 0 0 0 3.38 3.38l-2.01 3.47a16.667 16.667 0 0 0 1.74 1l2-3.48a13.022 13.022 0 0 0 4.61 1.24v4.02c.33.02.66.03 1 .03s.67-.01 1-.03v-4.02a13.022 13.022 0 0 0 4.61-1.24l2 3.48a16.667 16.667 0 0 0 1.74-1l-2.01-3.47a13.244 13.244 0 0 0 3.38-3.38l3.47 2.01a16.667 16.667 0 0 0 1-1.74l-3.48-2a13.022 13.022 0 0 0 1.24-4.61z" fill="#ffdf47"/><path d="m37 24a4 4 0 0 0 -4-4h-2a2 2 0 0 1 0-4h4a1 1 0 0 0 0-2h-2v-1a1 1 0 0 0 -2 0v1a4 4 0 0 0 0 8h2a2 2 0 0 1 0 4h-4a1 1 0 0 0 0 2h2v1a1 1 0 0 0 2 0v-1a4 4 0 0 0 4-4z" fill="#ffa91f"/><path d="m15 50h-4a1 1 0 0 1 0-2h4a1 1 0 0 1 0 2z" fill="#57555c"/><path d="m23 50h-4a1 1 0 0 1 0-2h4a1 1 0 0 1 0 2z" fill="#57555c"/><path d="m31 50h-4a1 1 0 0 1 0-2h4a1 1 0 0 1 0 2z" fill="#57555c"/><path d="m39 50h-4a1 1 0 0 1 0-2h4a1 1 0 0 1 0 2z" fill="#57555c"/><path d="m39 56h-28a1 1 0 0 1 0-2h28a1 1 0 0 1 0 2z" fill="#57555c"/><path d="m13 32h37v7h-37z" fill="#00a6ff"/><path d="m47 34h-30a1 1 0 0 1 0-2h30a1 1 0 0 1 0 2z" fill="#57555c"/><path d="m6 36h52v8h-52z" fill="#57555c"/><g fill="#8b8992"><path d="m40.42 36-8 8h-2.84l8-8z"/><path d="m46.42 36-8 8h-2.84l8-8z"/><path d="m52.42 36-8 8h-2.84l8-8z"/><path d="m58 36v.42l-7.58 7.58h-2.84l8-8z"/><path d="m16.42 36-8 8h-2.42v-.42l7.58-7.58z"/><path d="m22.42 36-8 8h-2.84l8-8z"/><path d="m28.42 36-8 8h-2.84l8-8z"/><path d="m34 36v.42l-7.58 7.58h-2.84l8-8z"/></g><path d="m50 48a3.969 3.969 0 0 0 -2.671 1.029 1 1 0 0 0 .014 1.495 1.986 1.986 0 0 1 0 2.952 1 1 0 0 0 -.014 1.495 4 4 0 1 0 2.671-6.971z" fill="#ffe670"/><path d="m48.671 49.029a3.986 3.986 0 1 0 1.329 2.971 3.969 3.969 0 0 0 -1.329-2.971z" fill="#ff633e"/></g></svg>