<svg height="512" viewBox="0 0 64 64" width="512" xmlns="http://www.w3.org/2000/svg"><g id="_09_Credit_Card_Machine" data-name="09 Credit Card Machine"><path d="m59 14a3 3 0 0 0 -3-3h-22a3 3 0 0 0 -3 3v8a1 1 0 0 0 1 1h2a3 3 0 0 1 3 3v28a1 1 0 0 0 1 1h18a3 3 0 0 0 3-3z" fill="#ffb74f"/><path d="m28.526 3.268a1 1 0 0 0 -.973-.044l-3.553 1.776-3.553-1.776a1 1 0 0 0 -.894 0l-3.553 1.776-3.553-1.776a1 1 0 0 0 -1.447.894v17.882a1 1 0 0 0 1 1h16a1 1 0 0 0 1-1v-17.882a1 1 0 0 0 -.474-.85z" fill="#e1e1e3"/><g fill="#c8c6cc"><path d="m19 11h-3a1 1 0 0 1 0-2h3a1 1 0 0 1 0 2z"/><path d="m24 11h-1a1 1 0 0 1 0-2h1a1 1 0 0 1 0 2z"/><path d="m19 15h-3a1 1 0 0 1 0-2h3a1 1 0 0 1 0 2z"/><path d="m24 15h-1a1 1 0 0 1 0-2h1a1 1 0 0 1 0 2z"/><path d="m19 19h-3a1 1 0 0 1 0-2h3a1 1 0 0 1 0 2z"/><path d="m24 19h-1a1 1 0 0 1 0-2h1a1 1 0 0 1 0 2z"/></g><path d="m48 45a1 1 0 0 0 -1 1v4a1 1 0 0 0 2 0v-4a1 1 0 0 0 -1-1z" fill="#57555c"/><path d="m48 37a1 1 0 0 0 -1 1v4a1 1 0 0 0 2 0v-4a1 1 0 0 0 -1-1z" fill="#57555c"/><path d="m48 29a1 1 0 0 0 -1 1v4a1 1 0 0 0 2 0v-4a1 1 0 0 0 -1-1z" fill="#57555c"/><path d="m54 29a1 1 0 0 0 -1 1v20a1 1 0 0 0 2 0v-20a1 1 0 0 0 -1-1z" fill="#57555c"/><path d="m43 11h-8v11.54a1 1 0 0 0 .5.867 3 3 0 0 1 1.5 2.593v28a1 1 0 0 0 1 1h5z" fill="#57555c"/><rect fill="#00a6ff" height="40" rx="5" width="34" x="5" y="21"/><rect fill="#fafbfb" height="14" rx="2" width="22" x="9" y="27"/><path d="m18.5 37a1 1 0 0 1 -.707-.293l-1-1a1 1 0 0 1 1.414-1.414l.293.293 3.293-3.293a1 1 0 0 1 1.414 1.414l-4 4a1 1 0 0 1 -.707.293z" fill="#ffa91f"/><path d="m14 47h-4a1 1 0 0 1 0-2h4a1 1 0 0 1 0 2z" fill="#57555c"/><path d="m30 47h-4a1 1 0 0 1 0-2h4a1 1 0 0 1 0 2z" fill="#57555c"/><path d="m22 47h-4a1 1 0 0 1 0-2h4a1 1 0 0 1 0 2z" fill="#57555c"/><path d="m14 51h-4a1 1 0 0 1 0-2h4a1 1 0 0 1 0 2z" fill="#57555c"/><path d="m30 51h-4a1 1 0 0 1 0-2h4a1 1 0 0 1 0 2z" fill="#57555c"/><path d="m22 51h-4a1 1 0 0 1 0-2h4a1 1 0 0 1 0 2z" fill="#57555c"/><path d="m14 55h-4a1 1 0 0 1 0-2h4a1 1 0 0 1 0 2z" fill="#ff633e"/><path d="m30 55h-12a1 1 0 0 1 0-2h12a1 1 0 0 1 0 2z" fill="#ffa91f"/><path d="m51 15a3.995 3.995 0 0 0 -2.971 6.671 1.089 1.089 0 0 0 .751.329 1 1 0 0 0 .744-.343 2.053 2.053 0 0 1 2.952 0 1 1 0 0 0 .744.343h.01a1 1 0 0 0 .741-.329 3.995 3.995 0 0 0 -2.971-6.671z" fill="#ffe670"/><path d="m53.984 20.343a4 4 0 0 0 -6.984 2.657 4 4 0 0 0 8 0 3.959 3.959 0 0 0 -1.016-2.657z" fill="#ff633e"/></g></svg>