<svg height="512" viewBox="0 0 64 64" width="512" xmlns="http://www.w3.org/2000/svg"><g id="_10_Payment" data-name="10 Payment"><rect fill="#fafbfb" height="30" rx="1" width="42" x="13" y="3"/><path d="m61 8v20a5.006 5.006 0 0 1 -5 5h-48a5.006 5.006 0 0 1 -5-5v-20a5.006 5.006 0 0 1 5-5h48a5.006 5.006 0 0 1 5 5zm-8 23v-26h-38v26z" fill="#00a6ff"/><path d="m56 13v1a1 1 0 0 0 2 0v-1a1 1 0 0 0 -2 0z" fill="#006ef5"/><path d="m56 18v5a1 1 0 0 0 2 0v-5a1 1 0 0 0 -2 0z" fill="#006ef5"/><circle cx="9" cy="18" fill="#006ef5" r="3"/><path d="m8 10v2a1 1 0 0 0 2 0v-2a1 1 0 0 0 -2 0z" fill="#006ef5"/><path d="m8 24v2a1 1 0 0 0 2 0v-2a1 1 0 0 0 -2 0z" fill="#006ef5"/><path d="m44 7h-20a5.006 5.006 0 0 0 -5 5v42a7.008 7.008 0 0 0 7 7h16a7.008 7.008 0 0 0 7-7v-42a5.006 5.006 0 0 0 -5-5z" fill="#ffa91f"/><rect fill="#fafbfb" height="16" rx="2" width="22" x="23" y="13"/><path d="m32.5 24a1 1 0 0 1 -.555-.168l-1.5-1a1 1 0 0 1 1.11-1.664l.857.572 3.924-3.488a1 1 0 0 1 1.328 1.5l-4.5 4a1 1 0 0 1 -.664.248z" fill="#ffa91f"/><rect fill="#ff633e" height="6" rx="2" width="10" x="23" y="33"/><rect fill="#ff633e" height="6" rx="2" width="10" x="35" y="33"/><g fill="#57555c"><rect height="6" rx="2" width="6" x="39" y="41"/><rect height="6" rx="2" width="6" x="31" y="41"/><rect height="6" rx="2" width="6" x="23" y="41"/><rect height="6" rx="2" width="6" x="39" y="49"/><rect height="6" rx="2" width="6" x="31" y="49"/><rect height="6" rx="2" width="6" x="23" y="49"/></g></g></svg>