<svg height="512" viewBox="0 0 64 64" width="512" xmlns="http://www.w3.org/2000/svg"><g id="_11_Bitcoin" data-name="11 Bitcoin"><path d="m45.815 27.9a6.451 6.451 0 0 0 1.185.1 8 8 0 0 0 0-16 6.451 6.451 0 0 0 -1.185.1 1 1 0 0 0 -.815.98v13.84a1 1 0 0 0 .815.98z" fill="#ffb74f"/><path d="m49 32a7.818 7.818 0 0 0 -3.435.78 1 1 0 0 0 -.565.9v12.64a1 1 0 0 0 .565.9 7.818 7.818 0 0 0 3.435.78 8 8 0 0 0 0-16z" fill="#ffb74f"/><path d="m18.435 23.78a7.818 7.818 0 0 0 -3.435-.78 8 8 0 0 0 0 16 7.818 7.818 0 0 0 3.435-.78 1 1 0 0 0 .565-.9v-12.64a1 1 0 0 0 -.565-.9z" fill="#ffb74f"/><path d="m45.639 23.752a3.737 3.737 0 0 0 1.361.248 4 4 0 0 0 0-8 3.737 3.737 0 0 0 -1.361.248 1 1 0 0 0 -.639.932v5.64a1 1 0 0 0 .639.932z" fill="#ffe670"/><circle cx="49" cy="40" fill="#ffe670" r="4"/><circle cx="15" cy="31" fill="#ffe670" r="4"/><rect fill="#fafbfb" height="42" rx="1" width="30" x="17" y="9"/><path d="m42 3h-20a5.006 5.006 0 0 0 -5 5v48a5.006 5.006 0 0 0 5 5h20a5.006 5.006 0 0 0 5-5v-48a5.006 5.006 0 0 0 -5-5zm-23 8h26v38h-26z" fill="#00a6ff"/><g fill="#006ef5"><path d="m37 8h-1a1 1 0 0 1 0-2h1a1 1 0 0 1 0 2z"/><path d="m32 8h-5a1 1 0 0 1 0-2h5a1 1 0 0 1 0 2z"/><circle cx="32" cy="55" r="3"/><path d="m40 56h-2a1 1 0 0 1 0-2h2a1 1 0 0 1 0 2z"/><path d="m26 56h-2a1 1 0 0 1 0-2h2a1 1 0 0 1 0 2z"/></g><path d="m37.31 30a5.992 5.992 0 0 0 -2.31-10.91v-2.09a1 1 0 0 0 -2 0v2h-2v-2a1 1 0 0 0 -2 0v2h-4a1 1 0 0 0 0 2h1v18h-1a1 1 0 0 0 0 2h4v2a1 1 0 0 0 2 0v-2h2v2a1 1 0 0 0 2 0v-2.09a5.992 5.992 0 0 0 2.31-10.91zm.69-5a4 4 0 0 1 -4 4h-6v-8h6a4 4 0 0 1 4 4zm-4 14h-6v-8h6a4 4 0 0 1 0 8z" fill="#ffa91f"/></g></svg>