<svg height="512" viewBox="0 0 64 64" width="512" xmlns="http://www.w3.org/2000/svg"><g id="_12_E-Money" data-name="12 E-Money"><rect fill="#fafbfb" height="42" rx="1" width="30" x="6" y="9"/><path d="m31 3h-20a5.006 5.006 0 0 0 -5 5v48a5.006 5.006 0 0 0 5 5h20a5.006 5.006 0 0 0 5-5v-48a5.006 5.006 0 0 0 -5-5zm-23 8h26v38h-26z" fill="#00a6ff"/><g fill="#006ef5"><path d="m26 8h-1a1 1 0 0 1 0-2h1a1 1 0 0 1 0 2z"/><path d="m21 8h-5a1 1 0 0 1 0-2h5a1 1 0 0 1 0 2z"/><circle cx="21" cy="55" r="3"/><path d="m29 56h-2a1 1 0 0 1 0-2h2a1 1 0 0 1 0 2z"/><path d="m15 56h-2a1 1 0 0 1 0-2h2a1 1 0 0 1 0 2z"/></g><path d="m56 16h-39a1 1 0 0 0 -1 1v26a1 1 0 0 0 1 1h39a2 2 0 0 0 2-2v-24a2 2 0 0 0 -2-2z" fill="#00c379"/><path d="m53 24a3 3 0 0 1 -3-3 1 1 0 0 0 -1-1h-32a1 1 0 0 0 -1 1v18a1 1 0 0 0 1 1h32a1 1 0 0 0 1-1 3 3 0 0 1 3-3 1 1 0 0 0 1-1v-10a1 1 0 0 0 -1-1z" fill="#c7eeda"/><path d="m33 29h-2a1 1 0 0 1 0-2h3a1 1 0 0 0 0-2h-1a1 1 0 0 0 -2 0 3 3 0 0 0 0 6h2a1 1 0 0 1 0 2h-3a1 1 0 0 0 0 2h1a1 1 0 0 0 2 0 3 3 0 0 0 0-6z" fill="#00c379"/><path d="m43 29h-4a1 1 0 0 0 0 2h4a1 1 0 0 0 0-2z" fill="#00c379"/><path d="m25 29h-4a1 1 0 0 0 0 2h4a1 1 0 0 0 0-2z" fill="#00c379"/><path d="m18 45v-30a1 1 0 0 0 0-2h-4a2 2 0 0 0 -2 2v30a2 2 0 0 0 2 2h4a1 1 0 0 0 0-2z" fill="#ffc473"/></g></svg>