<svg height="512" viewBox="0 0 64 64" width="512" xmlns="http://www.w3.org/2000/svg"><g id="_13_Barcode" data-name="13 Barcode"><rect fill="#f5f5f5" height="44" rx="3" width="58" x="3" y="10"/><path d="m56 24a1 1 0 0 1 -1-1v-3h-3a1 1 0 0 1 0-2h3a2 2 0 0 1 2 2v3a1 1 0 0 1 -1 1z" fill="#00a6ff"/><path d="m8 24a1 1 0 0 1 -1-1v-3a2 2 0 0 1 2-2h3a1 1 0 0 1 0 2h-3v3a1 1 0 0 1 -1 1z" fill="#00a6ff"/><path d="m55 50h-3a1 1 0 0 1 0-2h3v-3a1 1 0 0 1 2 0v3a2 2 0 0 1 -2 2z" fill="#00a6ff"/><path d="m12 50h-3a2 2 0 0 1 -2-2v-3a1 1 0 0 1 2 0v3h3a1 1 0 0 1 0 2z" fill="#00a6ff"/><g fill="#57555c"><path d="m12 22a1 1 0 0 0 -1 1v22a1 1 0 0 0 2 0v-22a1 1 0 0 0 -1-1z"/><rect height="20" rx="2" width="6" x="19" y="22"/><rect height="20" rx="2" width="6" x="35" y="22"/><path d="m28 22a1 1 0 0 0 -1 1v18a1 1 0 0 0 2 0v-18a1 1 0 0 0 -1-1z"/><path d="m32 22a1 1 0 0 0 -1 1v22a1 1 0 0 0 2 0v-22a1 1 0 0 0 -1-1z"/><path d="m52 22a1 1 0 0 0 -1 1v22a1 1 0 0 0 2 0v-22a1 1 0 0 0 -1-1z"/><path d="m24 44h-4a1 1 0 0 0 0 2h4a1 1 0 0 0 0-2z"/><path d="m40 44h-4a1 1 0 0 0 0 2h4a1 1 0 0 0 0-2z"/><path d="m28.38 44.08a1 1 0 0 0 -1.09.21 1.032 1.032 0 0 0 -.21.33.943.943 0 0 0 0 .76.933.933 0 0 0 .21.33 1 1 0 0 0 1.42-1.42 1.155 1.155 0 0 0 -.33-.21z"/><path d="m16 22a1 1 0 0 0 -1 1v18a1 1 0 0 0 2 0v-18a1 1 0 0 0 -1-1z"/><path d="m16.92 44.62a.757.757 0 0 0 -.09-.18l-.12-.15a1.032 1.032 0 0 0 -.33-.21.956.956 0 0 0 -.58-.06.636.636 0 0 0 -.18.06.757.757 0 0 0 -.18.09l-.15.12-.12.15a.757.757 0 0 0 -.09.18.636.636 0 0 0 -.06.18 1.5 1.5 0 0 0 -.02.2 1.052 1.052 0 0 0 .29.71 1.576 1.576 0 0 0 .15.12.757.757 0 0 0 .18.09.636.636 0 0 0 .18.06 1.355 1.355 0 0 0 .2.02 1 1 0 0 0 .38-.08 1.032 1.032 0 0 0 .33-.21 1.052 1.052 0 0 0 .29-.71 1.5 1.5 0 0 0 -.02-.2.636.636 0 0 0 -.06-.18z"/><path d="m44 22a1 1 0 0 0 -1 1v18a1 1 0 0 0 2 0v-18a1 1 0 0 0 -1-1z"/><path d="m44.38 44.08a1 1 0 1 0 -.38 1.92 1 1 0 0 0 .71-1.71 1.169 1.169 0 0 0 -.33-.21z"/><path d="m48 22a1 1 0 0 0 -1 1v18a1 1 0 0 0 2 0v-18a1 1 0 0 0 -1-1z"/><path d="m48.71 44.29a1 1 0 0 0 -.16-.12.568.568 0 0 0 -.17-.09.609.609 0 0 0 -.191-.06.852.852 0 0 0 -.389 0 .636.636 0 0 0 -.18.06.782.782 0 0 0 -.181.09 1.7 1.7 0 0 0 -.149.12 1.014 1.014 0 0 0 0 1.42 1.7 1.7 0 0 0 .149.12.782.782 0 0 0 .181.09.636.636 0 0 0 .18.06 1.487 1.487 0 0 0 .2.02 1.2 1.2 0 0 0 .189-.02.609.609 0 0 0 .191-.06.568.568 0 0 0 .17-.09 1 1 0 0 0 .16-.12 1.052 1.052 0 0 0 .29-.71.852.852 0 0 0 -.08-.38 1.155 1.155 0 0 0 -.21-.33z"/></g><path d="m8.92 14.62a.757.757 0 0 0 -.09-.18l-.12-.15-.15-.12a.757.757 0 0 0 -.18-.09.636.636 0 0 0 -.18-.06.956.956 0 0 0 -.58.06 1.155 1.155 0 0 0 -.33.21l-.12.15a.757.757 0 0 0 -.09.18.636.636 0 0 0 -.06.18 1.355 1.355 0 0 0 -.02.2 1 1 0 0 0 .08.38.9.9 0 0 0 .54.54 1 1 0 0 0 .38.08 1.355 1.355 0 0 0 .2-.02.636.636 0 0 0 .18-.06.757.757 0 0 0 .18-.09l.15-.12a1.155 1.155 0 0 0 .21-.33 1 1 0 0 0 .08-.38 1.355 1.355 0 0 0 -.02-.2.636.636 0 0 0 -.06-.18z" fill="#ffa91f"/><path d="m11.29 14.29a1.052 1.052 0 0 0 -.29.71 1 1 0 0 0 .08.38 1.032 1.032 0 0 0 .21.33 1.576 1.576 0 0 0 .15.12.757.757 0 0 0 .18.09.636.636 0 0 0 .18.06 1.01 1.01 0 0 0 .4 0 .636.636 0 0 0 .18-.06.757.757 0 0 0 .18-.09 1.576 1.576 0 0 0 .15-.12 1.032 1.032 0 0 0 .21-.33 1 1 0 0 0 .08-.38 1 1 0 0 0 -1.71-.71z" fill="#ffa91f"/><path d="m16.92 14.62a1.155 1.155 0 0 0 -.21-.33.933.933 0 0 0 -.33-.21 1.041 1.041 0 0 0 -1.09.21 1.155 1.155 0 0 0 -.21.33.943.943 0 0 0 0 .76 1.155 1.155 0 0 0 .21.33 1.576 1.576 0 0 0 .15.12.757.757 0 0 0 .18.09.636.636 0 0 0 .18.06 1.355 1.355 0 0 0 .2.02.838.838 0 0 0 .38-.08 1.032 1.032 0 0 0 .33-.21 1.052 1.052 0 0 0 .29-.71 1 1 0 0 0 -.08-.38z" fill="#ffa91f"/></g></svg>