<svg height="512" viewBox="0 0 64 64" width="512" xmlns="http://www.w3.org/2000/svg"><g id="_14_Credit_Card_Bill" data-name="14 Credit Card Bill"><path d="m54 49v7a5.01 5.01 0 0 1 -3.99 4.9h-.02a4.619 4.619 0 0 1 -.99.1 5 5 0 0 1 -5-5v-8a1 1 0 0 1 1-1h7a2.006 2.006 0 0 1 2 2z" fill="#c8c6cc"/><rect fill="#00a6ff" height="32" rx="3" width="52" x="6" y="3"/><rect fill="#ffdf47" height="10" rx="3" width="12" x="10" y="7"/><path d="m15 7v4h-5v2h5v4h2v-10z" fill="#d9a600"/><path d="m22 11h-2a1 1 0 0 0 0 2h2z" fill="#d9a600"/><g fill="#57555c"><path d="m15 25h-4a1 1 0 0 1 0-2h4a1 1 0 0 1 0 2z"/><path d="m23 25h-4a1 1 0 0 1 0-2h4a1 1 0 0 1 0 2z"/><path d="m31 25h-4a1 1 0 0 1 0-2h4a1 1 0 0 1 0 2z"/><path d="m39 25h-4a1 1 0 0 1 0-2h4a1 1 0 0 1 0 2z"/></g><path d="m50 7a3.969 3.969 0 0 0 -2.671 1.029 1 1 0 0 0 .014 1.495 1.986 1.986 0 0 1 0 2.952 1 1 0 0 0 -.014 1.495 4 4 0 1 0 2.671-6.971z" fill="#ffe670"/><path d="m48.671 8.029a3.986 3.986 0 1 0 1.329 2.971 3.969 3.969 0 0 0 -1.329-2.971z" fill="#ff633e"/><path d="m49.99 60.9a4.619 4.619 0 0 1 -.99.1h-26a5 5 0 0 1 -5-5v-26a1 1 0 0 1 1-1h26a1 1 0 0 1 1 1v26a5.01 5.01 0 0 0 3.99 4.9z" fill="#e1e1e3"/><path d="m49 31h-34a1 1 0 0 1 0-2h34a1 1 0 0 1 0 2z" fill="#57555c"/><path d="m28 44h-2a2 2 0 0 1 0-4h4a1 1 0 0 0 0-2h-2v-1a1 1 0 0 0 -2 0v1a4 4 0 0 0 0 8h2a2 2 0 0 1 0 4h-4a1 1 0 0 0 0 2h2v1a1 1 0 0 0 2 0v-1a4 4 0 0 0 0-8z" fill="#ffb74f"/><path d="m41 40h-6a1 1 0 0 1 0-2h6a1 1 0 0 1 0 2z" fill="#78777f"/><path d="m41 44h-6a1 1 0 0 1 0-2h6a1 1 0 0 1 0 2z" fill="#78777f"/><path d="m41 48h-6a1 1 0 0 1 0-2h6a1 1 0 0 1 0 2z" fill="#78777f"/><path d="m41 52h-6a1 1 0 0 1 0-2h6a1 1 0 0 1 0 2z" fill="#78777f"/></g></svg>