<svg height="512" viewBox="0 0 64 64" width="512" xmlns="http://www.w3.org/2000/svg"><g id="_15_E-Money" data-name="15 E-Money"><rect fill="#fafbfb" height="42" rx="1" width="30" x="12" y="9"/><path d="m37 3h-20a5.006 5.006 0 0 0 -5 5v48a5.006 5.006 0 0 0 5 5h20a5.006 5.006 0 0 0 5-5v-48a5.006 5.006 0 0 0 -5-5zm-23 8h26v38h-26z" fill="#00a6ff"/><circle cx="35" cy="30" fill="#ffa91f" r="17"/><path d="m51.97 31c.02-.33.03-.66.03-1s-.01-.67-.03-1h-4.02a13.022 13.022 0 0 0 -1.24-4.61l3.48-2a16.667 16.667 0 0 0 -1-1.74l-3.47 2.01a13.244 13.244 0 0 0 -3.38-3.38l2.01-3.47a16.667 16.667 0 0 0 -1.74-1l-2 3.48a13.022 13.022 0 0 0 -4.61-1.24v-4.02c-.33-.02-.66-.03-1-.03s-.67.01-1 .03v4.02a13.022 13.022 0 0 0 -4.61 1.24l-2-3.48a16.667 16.667 0 0 0 -1.74 1l2.01 3.47a13.244 13.244 0 0 0 -3.38 3.38l-3.47-2.01a16.667 16.667 0 0 0 -1 1.74l3.48 2a13.022 13.022 0 0 0 -1.24 4.61h-4.02c-.02.33-.03.66-.03 1s.01.67.03 1h4.02a13.022 13.022 0 0 0 1.24 4.61l-3.48 2a16.667 16.667 0 0 0 1 1.74l3.47-2.01a13.244 13.244 0 0 0 3.38 3.38l-2.01 3.47a16.667 16.667 0 0 0 1.74 1l2-3.48a13.022 13.022 0 0 0 4.61 1.24v4.02c.33.02.66.03 1 .03s.67-.01 1-.03v-4.02a13.022 13.022 0 0 0 4.61-1.24l2 3.48a16.667 16.667 0 0 0 1.74-1l-2.01-3.47a13.244 13.244 0 0 0 3.38-3.38l3.47 2.01a16.667 16.667 0 0 0 1-1.74l-3.48-2a13.022 13.022 0 0 0 1.24-4.61z" fill="#ffdf47"/><path d="m40 33a4 4 0 0 0 -4-4h-2a2 2 0 0 1 0-4h4a1 1 0 0 0 0-2h-2v-1a1 1 0 0 0 -2 0v1a4 4 0 0 0 0 8h2a2 2 0 0 1 0 4h-4a1 1 0 0 0 0 2h2v1a1 1 0 0 0 2 0v-1a4 4 0 0 0 4-4z" fill="#ffa91f"/><g fill="#006ef5"><path d="m32 8h-1a1 1 0 0 1 0-2h1a1 1 0 0 1 0 2z"/><path d="m27 8h-5a1 1 0 0 1 0-2h5a1 1 0 0 1 0 2z"/><circle cx="27" cy="55" r="3"/><path d="m35 56h-2a1 1 0 0 1 0-2h2a1 1 0 0 1 0 2z"/><path d="m21 56h-2a1 1 0 0 1 0-2h2a1 1 0 0 1 0 2z"/></g><path d="m16 15h7v30h-7z" fill="#fafbfb"/><path d="m23 43a1 1 0 0 1 -1-1v-24a1 1 0 0 1 2 0v24a1 1 0 0 1 -1 1z" fill="#8b8992"/><path d="m24 47h-4a2 2 0 0 1 -2-2v-30a2 2 0 0 1 2-2h4a1 1 0 0 1 0 2h-4v30h4a1 1 0 0 1 0 2z" fill="#8b8992"/></g></svg>