<svg height="512" viewBox="0 0 64 64" width="512" xmlns="http://www.w3.org/2000/svg"><g id="_16_Online_Banking" data-name="16 Online Banking"><rect fill="#f5f5f5" height="44" rx="5" width="58" x="3" y="9"/><rect fill="#aeadb3" height="6" rx="1" width="14" x="25" y="51"/><path d="m40 55h-16a5.006 5.006 0 0 0 -5 5 1 1 0 0 0 1 1h24a1 1 0 0 0 1-1 5.006 5.006 0 0 0 -5-5z" fill="#d8d8da"/><path d="m56 9h-48a5.006 5.006 0 0 0 -5 5v34a5.006 5.006 0 0 0 5 5h48a5.006 5.006 0 0 0 5-5v-34a5.006 5.006 0 0 0 -5-5zm-51 34v-29a3 3 0 0 1 3-3h48a3 3 0 0 1 3 3v29z" fill="#d8d8da"/><path d="m54 49.005a1.005 1.005 0 1 1 1.005-1.005 1.009 1.009 0 0 1 -1.005 1.005z" fill="#ffa91f"/><path d="m47 61h-30a1 1 0 0 1 0-2h30a1 1 0 0 1 0 2z" fill="#aeadb3"/><rect fill="#00a6ff" height="8" rx="2" width="16" x="41" y="15"/><g fill="#57555c"><path d="m56 27h-11a1 1 0 0 1 0-2h11a1 1 0 0 1 0 2z"/><path d="m56 31h-4a1 1 0 0 1 0-2h4a1 1 0 0 1 0 2z"/><path d="m48 31h-6a1 1 0 0 1 0-2h6a1 1 0 0 1 0 2z"/><path d="m56 35h-9a1 1 0 0 1 0-2h9a1 1 0 0 1 0 2z"/><path d="m43 35h-1a1 1 0 0 1 0-2h1a1 1 0 0 1 0 2z"/><path d="m56 39h-6a1 1 0 0 1 0-2h6a1 1 0 0 1 0 2z"/><path d="m46 39h-4a1 1 0 0 1 0-2h4a1 1 0 0 1 0 2z"/></g><rect fill="#ffc473" height="14" rx="1" width="6" x="10" y="21"/><rect fill="#ffc473" height="14" rx="1" width="6" x="20" y="21"/><rect fill="#ffc473" height="14" rx="1" width="6" x="30" y="21"/><path d="m16 17h-6a1 1 0 0 0 -1 1v3a2 2 0 0 0 2 2h4a2 2 0 0 0 2-2v-3a1 1 0 0 0 -1-1z" fill="#ffb74f"/><path d="m26 17h-6a1 1 0 0 0 -1 1v3a2 2 0 0 0 2 2h4a2 2 0 0 0 2-2v-3a1 1 0 0 0 -1-1z" fill="#ffb74f"/><path d="m36 17h-6a1 1 0 0 0 -1 1v3a2 2 0 0 0 2 2h4a2 2 0 0 0 2-2v-3a1 1 0 0 0 -1-1z" fill="#ffb74f"/><path d="m15 33h-4a2 2 0 0 0 -2 2v3a1 1 0 0 0 1 1h6a1 1 0 0 0 1-1v-3a2 2 0 0 0 -2-2z" fill="#ffb74f"/><path d="m25 33h-4a2 2 0 0 0 -2 2v3a1 1 0 0 0 1 1h6a1 1 0 0 0 1-1v-3a2 2 0 0 0 -2-2z" fill="#ffb74f"/><path d="m35 33h-4a2 2 0 0 0 -2 2v3a1 1 0 0 0 1 1h6a1 1 0 0 0 1-1v-3a2 2 0 0 0 -2-2z" fill="#ffb74f"/><path d="m38 39h-30a1 1 0 0 1 0-2h30a1 1 0 0 1 0 2z" fill="#57555c"/><path d="m37.581 13.187-14-10a1 1 0 0 0 -1.162 0l-14 10a1 1 0 0 0 .581 1.813h28a1 1 0 0 0 .581-1.813z" fill="#ffb74f"/><rect fill="#ff9a00" height="6" rx="2" width="32" x="7" y="13"/></g></svg>