<svg height="512" viewBox="0 0 64 64" width="512" xmlns="http://www.w3.org/2000/svg"><g id="_18_Online_Bill" data-name="18 Online  Bill"><rect fill="#f5f5f5" height="44" rx="5" width="58" x="3" y="9"/><rect fill="#aeadb3" height="6" rx="1" width="14" x="25" y="51"/><path d="m15.538 18.826a1 1 0 0 0 -.96-.062l-5 2.33a1 1 0 0 0 -.1 1.758l5 3.08a1 1 0 0 0 1.522-.852v-5.41a1 1 0 0 0 -.462-.844z" fill="#ffa91f"/><path d="m40.423 21.094-5-2.33a1 1 0 0 0 -1.423.906v5.41a1 1 0 0 0 1.524.852l5-3.08a1 1 0 0 0 -.1-1.758z" fill="#ffa91f"/><path d="m40 55h-16a5.006 5.006 0 0 0 -5 5 1 1 0 0 0 1 1h24a1 1 0 0 0 1-1 5.006 5.006 0 0 0 -5-5z" fill="#d8d8da"/><path d="m56 9h-48a5.006 5.006 0 0 0 -5 5v34a5.006 5.006 0 0 0 5 5h48a5.006 5.006 0 0 0 5-5v-34a5.006 5.006 0 0 0 -5-5zm-51 34v-29a3 3 0 0 1 3-3h48a3 3 0 0 1 3 3v29z" fill="#d8d8da"/><path d="m54 49.005a1.005 1.005 0 1 1 1.005-1.005 1.009 1.009 0 0 1 -1.005 1.005z" fill="#ffa91f"/><path d="m47 61h-30a1 1 0 0 1 0-2h30a1 1 0 0 1 0 2z" fill="#aeadb3"/><path d="m35.493 3.13a1 1 0 0 0 -1.008.013l-4.485 2.691-4.485-2.691a1 1 0 0 0 -1.03 0l-4.485 2.691-4.485-2.691a1 1 0 0 0 -1.515.857v21.08a1 1 0 0 0 .476.852l8 4.92a1.01 1.01 0 0 0 .524.148h4a1.01 1.01 0 0 0 .524-.148l8-4.92a1 1 0 0 0 .476-.852v-21.08a1 1 0 0 0 -.507-.87z" fill="#e1e1e3"/><path d="m40.488 21.127a1 1 0 0 0 -1.012.021l-13 8a1 1 0 0 0 0 1.7l13 8a1 1 0 0 0 1.524-.848v-16a1 1 0 0 0 -.512-.873z" fill="#ffc473"/><path d="m23.524 29.148-13-8a1 1 0 0 0 -1.524.852v16a1 1 0 0 0 1.524.852l13-8a1 1 0 0 0 0-1.7z" fill="#ffc473"/><path d="m40.524 37.148-13-8a1.007 1.007 0 0 0 -.524-.148h-4a1.007 1.007 0 0 0 -.524.148l-13 8a1 1 0 0 0 .524 1.852h30a1 1 0 0 0 .524-1.852z" fill="#ffa91f"/><path d="m23 17h-2a1 1 0 0 1 0-2h3a1 1 0 0 0 0-2h-1a1 1 0 0 0 -2 0 3 3 0 0 0 0 6h2a1 1 0 0 1 0 2h-3a1 1 0 0 0 0 2h1a1 1 0 0 0 2 0 3 3 0 0 0 0-6z" fill="#ffb74f"/><path d="m31 15h-2a1 1 0 0 1 0-2h2a1 1 0 0 1 0 2z" fill="#78777f"/><path d="m31 19h-2a1 1 0 0 1 0-2h2a1 1 0 0 1 0 2z" fill="#78777f"/><path d="m31 23h-2a1 1 0 0 1 0-2h2a1 1 0 0 1 0 2z" fill="#78777f"/><g fill="#57555c"><path d="m54 24h-7a1 1 0 0 1 0-2h7a1 1 0 0 1 0 2z"/><path d="m54 28a.991.991 0 0 1 -.71-.29 1.169 1.169 0 0 1 -.21-.33.942.942 0 0 1 0-.76 1.155 1.155 0 0 1 .21-.33 1.032 1.032 0 0 1 .33-.21 1 1 0 0 1 1.09.21 1.155 1.155 0 0 1 .21.33.943.943 0 0 1 0 .76 1.169 1.169 0 0 1 -.21.33.994.994 0 0 1 -.71.29z"/><path d="m50 28h-6a1 1 0 0 1 0-2h6a1 1 0 0 1 0 2z"/><path d="m54 32h-5a1 1 0 0 1 0-2h5a1 1 0 0 1 0 2z"/><path d="m45 32h-1a1 1 0 0 1 0-2h1a1 1 0 0 1 0 2z"/><path d="m54 36h-2a1 1 0 0 1 0-2h2a1 1 0 0 1 0 2z"/><path d="m48 36h-4a1 1 0 0 1 0-2h4a1 1 0 0 1 0 2z"/></g></g></svg>