<svg height="512" viewBox="0 0 64 64" width="512" xmlns="http://www.w3.org/2000/svg"><g id="_19_Cashless_Shopping" data-name="19 Cashless Shopping"><path d="m42.675 4.665a2.962 2.962 0 0 0 -2.675-1.665 3 3 0 0 0 -2.363 1.164l-9.406 12.227a1 1 0 0 0 .793 1.609h5a1 1 0 0 0 .793-.391l7.545-9.809a2.96 2.96 0 0 0 .313-3.135z" fill="#e67500"/><path d="m55.769 16.391-9.406-12.228a3 3 0 0 0 -2.363-1.163 2.981 2.981 0 0 0 -2.363 4.8l7.546 9.81a1 1 0 0 0 .793.391h5a1 1 0 0 0 .793-1.609z" fill="#ff8900"/><rect fill="#00a6ff" height="32" rx="3" width="52" x="3" y="29"/><rect fill="#ffdf47" height="10" rx="3" width="12" x="7" y="33"/><path d="m12 33v4h-5v2h5v4h2v-10z" fill="#d9a600"/><path d="m19 37h-2a1 1 0 0 0 0 2h2z" fill="#d9a600"/><path d="m12 51h-4a1 1 0 0 1 0-2h4a1 1 0 0 1 0 2z" fill="#57555c"/><path d="m20 51h-4a1 1 0 0 1 0-2h4a1 1 0 0 1 0 2z" fill="#57555c"/><path d="m28 51h-4a1 1 0 0 1 0-2h4a1 1 0 0 1 0 2z" fill="#57555c"/><path d="m36 51h-4a1 1 0 0 1 0-2h4a1 1 0 0 1 0 2z" fill="#57555c"/><path d="m36 57h-28a1 1 0 0 1 0-2h28a1 1 0 0 1 0 2z" fill="#57555c"/><path d="m58.788 22.385a1 1 0 0 0 -.788-.385h-32a1 1 0 0 0 -.97 1.242l3.811 15.242a2 2 0 0 0 1.94 1.516h22.438a2 2 0 0 0 1.94-1.516l3.811-15.242a1 1 0 0 0 -.182-.857z" fill="#ffc473"/><g fill="#ffa91f"><rect height="8" rx="2" width="38" x="23" y="16"/><path d="m42 34a1 1 0 0 1 -1-1v-4a1 1 0 0 1 2 0v4a1 1 0 0 1 -1 1z"/><path d="m38 34a1 1 0 0 1 -1-1v-4a1 1 0 0 1 2 0v4a1 1 0 0 1 -1 1z"/><path d="m34 34a1 1 0 0 1 -1-1v-4a1 1 0 0 1 2 0v4a1 1 0 0 1 -1 1z"/><path d="m46 34a1 1 0 0 1 -1-1v-4a1 1 0 0 1 2 0v4a1 1 0 0 1 -1 1z"/><path d="m50 34a1 1 0 0 1 -1-1v-4a1 1 0 0 1 2 0v4a1 1 0 0 1 -1 1z"/></g><path d="m48 49a3.969 3.969 0 0 0 -2.671 1.029 1 1 0 0 0 .014 1.495 1.986 1.986 0 0 1 0 2.952 1 1 0 0 0 -.014 1.495 4 4 0 1 0 2.671-6.971z" fill="#ffe670"/><path d="m46.671 50.029a3.986 3.986 0 1 0 1.329 2.971 3.969 3.969 0 0 0 -1.329-2.971z" fill="#ff633e"/></g></svg>