<svg height="512" viewBox="0 0 64 64" width="512" xmlns="http://www.w3.org/2000/svg"><g id="_20_Online_Payment" data-name="20 Online Payment"><rect fill="#f5f5f5" height="44" rx="5" width="58" x="3" y="9"/><rect fill="#aeadb3" height="6" rx="1" width="14" x="25" y="51"/><path d="m40 55h-16a5.006 5.006 0 0 0 -5 5 1 1 0 0 0 1 1h24a1 1 0 0 0 1-1 5.006 5.006 0 0 0 -5-5z" fill="#d8d8da"/><path d="m56 9h-48a5.006 5.006 0 0 0 -5 5v34a5.006 5.006 0 0 0 5 5h48a5.006 5.006 0 0 0 5-5v-34a5.006 5.006 0 0 0 -5-5zm-51 34v-29a3 3 0 0 1 3-3h48a3 3 0 0 1 3 3v29z" fill="#d8d8da"/><path d="m54 49.005a1.005 1.005 0 1 1 1.005-1.005 1.009 1.009 0 0 1 -1.005 1.005z" fill="#ffa91f"/><path d="m47 61h-30a1 1 0 0 1 0-2h30a1 1 0 0 1 0 2z" fill="#aeadb3"/><g fill="#57555c"><path d="m54 21h-7a1 1 0 0 1 0-2h7a1 1 0 0 1 0 2z"/><path d="m54 25a1 1 0 0 1 -.38-.08 1.155 1.155 0 0 1 -.33-.21.99.99 0 0 1 -.29-.71 1.213 1.213 0 0 1 .02-.19.6.6 0 0 1 .06-.19.782.782 0 0 1 .09-.181 1.7 1.7 0 0 1 .12-.149 1 1 0 0 1 .9-.27.609.609 0 0 1 .191.06.568.568 0 0 1 .17.09c.059.04.11.08.16.12l.12.149a.824.824 0 0 1 .09.181.577.577 0 0 1 .059.19 1.105 1.105 0 0 1 .02.19.99.99 0 0 1 -1 1z"/><path d="m50 25h-6a1 1 0 0 1 0-2h6a1 1 0 0 1 0 2z"/><path d="m54 29h-5a1 1 0 0 1 0-2h5a1 1 0 0 1 0 2z"/><path d="m45 29h-1a1 1 0 0 1 0-2h1a1 1 0 0 1 0 2z"/><path d="m54 33h-2a1 1 0 0 1 0-2h2a1 1 0 0 1 0 2z"/><path d="m48 33h-4a1 1 0 0 1 0-2h4a1 1 0 0 1 0 2z"/></g><path d="m38 3h-26a3 3 0 0 0 -3 3v32a1 1 0 0 0 1 1h30a1 1 0 0 0 1-1v-32a3 3 0 0 0 -3-3z" fill="#ffb74f"/><path d="m33 7a4 4 0 0 0 -2.973 6.671 1 1 0 0 0 .743.329h.009a1 1 0 0 0 .744-.343 2.053 2.053 0 0 1 2.954 0 1 1 0 0 0 .744.343h.009a1 1 0 0 0 .743-.329 4 4 0 0 0 -2.973-6.671z" fill="#ffe670"/><path d="m35.984 12.343a4 4 0 0 0 -6.984 2.657 4 4 0 0 0 8 0 3.963 3.963 0 0 0 -1.016-2.657z" fill="#ff7a53"/><path d="m30 35a1 1 0 0 1 -1-1v-4a1 1 0 0 1 2 0v4a1 1 0 0 1 -1 1z" fill="#78777f"/><path d="m30 27a1 1 0 0 1 -1-1v-4a1 1 0 0 1 2 0v4a1 1 0 0 1 -1 1z" fill="#78777f"/><path d="m36 39a1 1 0 0 1 -1-1v-16a1 1 0 0 1 2 0v16a1 1 0 0 1 -1 1z" fill="#78777f"/><path d="m20 39h-6a1 1 0 0 1 -1-1v-34a1 1 0 0 1 1-1h6a1 1 0 0 1 1 1v34a1 1 0 0 1 -1 1zm-5-2h4v-32h-4z"/><path d="m20 36a1 1 0 0 1 -.707-.293l-6-6a1 1 0 0 1 1.414-1.414l6 6a1 1 0 0 1 -.707 1.707z"/><path d="m17 39a1 1 0 0 1 -.707-.293l-3-3a1 1 0 0 1 1.414-1.414l3 3a1 1 0 0 1 -.707 1.707z"/><path d="m20 30a1 1 0 0 1 -.707-.293l-6-6a1 1 0 0 1 1.414-1.414l6 6a1 1 0 0 1 -.707 1.707z"/><path d="m20 24a1 1 0 0 1 -.707-.293l-6-6a1 1 0 0 1 1.414-1.414l6 6a1 1 0 0 1 -.707 1.707z"/><path d="m20 18a1 1 0 0 1 -.707-.293l-6-6a1 1 0 0 1 1.414-1.414l6 6a1 1 0 0 1 -.707 1.707z"/><path d="m20 12a1 1 0 0 1 -.707-.293l-6-6a1 1 0 0 1 1.414-1.414l6 6a1 1 0 0 1 -.707 1.707z"/><path d="m42 39h-34a1 1 0 0 1 0-2h34a1 1 0 0 1 0 2z" fill="#57555c"/><path d="m13 3h8v34h-8z" fill="#78777f"/><path d="m17.42 37h-2.84l-1.58-1.58v-2.84z" fill="#aeadb3"/><path d="m21 34.58v2.42h-.42l-7.58-7.58v-2.42h.42z" fill="#aeadb3"/><path d="m13 20.58 8 8v2.84l-8-8z" fill="#aeadb3"/><path d="m13 14.58 8 8v2.84l-8-8z" fill="#aeadb3"/><path d="m13 8.58 8 8v2.84l-8-8z" fill="#aeadb3"/><path d="m13 3h.42l7.58 7.58v2.84l-8-8z" fill="#aeadb3"/></g></svg>