<svg height="512" viewBox="0 0 64 64" width="512" xmlns="http://www.w3.org/2000/svg"><g id="_21_E-Wallet" data-name="21 E-Wallet"><rect fill="#f5f5f5" height="44" rx="3" width="58" x="3" y="13"/><g fill="#ffa91f"><path d="m8.92 17.62a.757.757 0 0 0 -.09-.18l-.12-.15-.15-.12a.757.757 0 0 0 -.18-.09.636.636 0 0 0 -.18-.06.956.956 0 0 0 -.58.06 1.155 1.155 0 0 0 -.33.21l-.12.15a.757.757 0 0 0 -.09.18.636.636 0 0 0 -.06.18 1.355 1.355 0 0 0 -.02.2 1 1 0 0 0 .08.38.9.9 0 0 0 .54.54 1 1 0 0 0 .38.08 1.355 1.355 0 0 0 .2-.02.636.636 0 0 0 .18-.06.757.757 0 0 0 .18-.09l.15-.12a1.155 1.155 0 0 0 .21-.33 1 1 0 0 0 .08-.38 1.355 1.355 0 0 0 -.02-.2.636.636 0 0 0 -.06-.18z"/><path d="m11.29 17.29a1.052 1.052 0 0 0 -.29.71 1 1 0 0 0 .08.38 1.032 1.032 0 0 0 .21.33 1.576 1.576 0 0 0 .15.12.757.757 0 0 0 .18.09.636.636 0 0 0 .18.06 1.01 1.01 0 0 0 .4 0 .636.636 0 0 0 .18-.06.757.757 0 0 0 .18-.09 1.576 1.576 0 0 0 .15-.12 1.032 1.032 0 0 0 .21-.33 1 1 0 0 0 .08-.38 1 1 0 0 0 -1.71-.71z"/><path d="m16.92 17.62a1.155 1.155 0 0 0 -.21-.33.933.933 0 0 0 -.33-.21 1.041 1.041 0 0 0 -1.09.21 1.155 1.155 0 0 0 -.21.33.942.942 0 0 0 0 .76 1.155 1.155 0 0 0 .21.33 1.576 1.576 0 0 0 .15.12.757.757 0 0 0 .18.09.636.636 0 0 0 .18.06 1.355 1.355 0 0 0 .2.02.838.838 0 0 0 .38-.08 1.032 1.032 0 0 0 .33-.21 1.052 1.052 0 0 0 .29-.71 1 1 0 0 0 -.08-.38z"/></g><rect fill="#00a6ff" height="6" rx="2" width="10" x="7" y="31"/><path d="m16 41h-8a1 1 0 0 1 0-2h8a1 1 0 0 1 0 2z" fill="#57555c"/><path d="m16 45h-8a1 1 0 0 1 0-2h8a1 1 0 0 1 0 2z" fill="#57555c"/><path d="m50 27h-27.871a3.087 3.087 0 0 1 -3.107-2.629 2.929 2.929 0 0 1 .158-1.381 2.89 2.89 0 0 1 .71-1.12 2.954 2.954 0 0 1 2.11-.87h27a2 2 0 0 1 2 2v3a1 1 0 0 1 -1 1z" fill="#ff9a00"/><path d="m41 33v10h13a1 1 0 0 1 1 1v5a2.006 2.006 0 0 1 -2 2h-31a3.009 3.009 0 0 1 -3-3v-24a2.866 2.866 0 0 1 .18-1.01 2.986 2.986 0 0 0 2.82 2.01h31a2.006 2.006 0 0 1 2 2v5a1 1 0 0 1 -1 1z" fill="#ffb74f"/><rect fill="#57555c" height="14" rx="2" width="18" x="39" y="31"/><circle cx="49" cy="38" fill="#ffdf47" r="3"/><circle cx="37" cy="17" fill="#ffdf47" r="10"/><path d="m38 16h-2a1 1 0 0 1 0-2h3a1 1 0 0 0 0-2h-1a1 1 0 0 0 -2 0 3 3 0 0 0 0 6h2a1 1 0 0 1 0 2h-3a1 1 0 0 0 0 2h1a1 1 0 0 0 2 0 3 3 0 0 0 0-6z" fill="#ffa91f"/></g></svg>