<svg height="512" viewBox="0 0 64 64" width="512" xmlns="http://www.w3.org/2000/svg"><g id="_22_E-Payment" data-name="22 E-Payment"><rect fill="#f5f5f5" height="44" rx="3" width="58" x="3" y="13"/><path d="m8.92 17.62a.757.757 0 0 0 -.09-.18l-.12-.15-.15-.12a.757.757 0 0 0 -.18-.09.636.636 0 0 0 -.18-.06.956.956 0 0 0 -.58.06 1.155 1.155 0 0 0 -.33.21l-.12.15a.757.757 0 0 0 -.09.18.636.636 0 0 0 -.06.18 1.355 1.355 0 0 0 -.02.2 1 1 0 0 0 .08.38.9.9 0 0 0 .54.54 1 1 0 0 0 .38.08 1.355 1.355 0 0 0 .2-.02.636.636 0 0 0 .18-.06.757.757 0 0 0 .18-.09l.15-.12a1.155 1.155 0 0 0 .21-.33 1 1 0 0 0 .08-.38 1.355 1.355 0 0 0 -.02-.2.636.636 0 0 0 -.06-.18z" fill="#ffa91f"/><path d="m11.29 17.29a1.052 1.052 0 0 0 -.29.71 1 1 0 0 0 .08.38 1.032 1.032 0 0 0 .21.33 1.576 1.576 0 0 0 .15.12.757.757 0 0 0 .18.09.636.636 0 0 0 .18.06 1.01 1.01 0 0 0 .4 0 .636.636 0 0 0 .18-.06.757.757 0 0 0 .18-.09 1.576 1.576 0 0 0 .15-.12 1.032 1.032 0 0 0 .21-.33 1 1 0 0 0 .08-.38 1 1 0 0 0 -1.71-.71z" fill="#ffa91f"/><path d="m16.92 17.62a1.155 1.155 0 0 0 -.21-.33.933.933 0 0 0 -.33-.21 1.041 1.041 0 0 0 -1.09.21 1.155 1.155 0 0 0 -.21.33.942.942 0 0 0 0 .76 1.155 1.155 0 0 0 .21.33 1.576 1.576 0 0 0 .15.12.757.757 0 0 0 .18.09.636.636 0 0 0 .18.06 1.355 1.355 0 0 0 .2.02.838.838 0 0 0 .38-.08 1.032 1.032 0 0 0 .33-.21 1.052 1.052 0 0 0 .29-.71 1 1 0 0 0 -.08-.38z" fill="#ffa91f"/><rect fill="#00a6ff" height="6" rx="2" width="10" x="7" y="26"/><path d="m16 36h-8a1 1 0 0 1 0-2h8a1 1 0 0 1 0 2z" fill="#57555c"/><path d="m16 40h-8a1 1 0 0 1 0-2h8a1 1 0 0 1 0 2z" fill="#57555c"/><path d="m56 51h-36a1 1 0 0 1 0-2h36a1 1 0 0 1 0 2z" fill="#57555c"/><path d="m51 7h-26a3 3 0 0 0 -3 3v32a1 1 0 0 0 1 1h30a1 1 0 0 0 1-1v-32a3 3 0 0 0 -3-3z" fill="#ffb74f"/><path d="m46 11a4 4 0 0 0 -2.973 6.671 1 1 0 0 0 .743.329h.009a1 1 0 0 0 .744-.343 2.053 2.053 0 0 1 2.954 0 1 1 0 0 0 .744.343h.009a1 1 0 0 0 .743-.329 4 4 0 0 0 -2.973-6.671z" fill="#ffe670"/><path d="m48.984 16.343a4 4 0 0 0 -6.984 2.657 4 4 0 0 0 8 0 3.963 3.963 0 0 0 -1.016-2.657z" fill="#ff7a53"/><path d="m43 39a1 1 0 0 1 -1-1v-4a1 1 0 0 1 2 0v4a1 1 0 0 1 -1 1z" fill="#78777f"/><path d="m43 31a1 1 0 0 1 -1-1v-4a1 1 0 0 1 2 0v4a1 1 0 0 1 -1 1z" fill="#78777f"/><path d="m49 43a1 1 0 0 1 -1-1v-16a1 1 0 0 1 2 0v16a1 1 0 0 1 -1 1z" fill="#78777f"/><path d="m33 43h-6a1 1 0 0 1 -1-1v-34a1 1 0 0 1 1-1h6a1 1 0 0 1 1 1v34a1 1 0 0 1 -1 1zm-5-2h4v-32h-4z"/><path d="m33 40a1 1 0 0 1 -.707-.293l-6-6a1 1 0 0 1 1.414-1.414l6 6a1 1 0 0 1 -.707 1.707z"/><path d="m30 43a1 1 0 0 1 -.707-.293l-3-3a1 1 0 0 1 1.414-1.414l3 3a1 1 0 0 1 -.707 1.707z"/><path d="m33 34a1 1 0 0 1 -.707-.293l-6-6a1 1 0 0 1 1.414-1.414l6 6a1 1 0 0 1 -.707 1.707z"/><path d="m33 28a1 1 0 0 1 -.707-.293l-6-6a1 1 0 0 1 1.414-1.414l6 6a1 1 0 0 1 -.707 1.707z"/><path d="m33 22a1 1 0 0 1 -.707-.293l-6-6a1 1 0 0 1 1.414-1.414l6 6a1 1 0 0 1 -.707 1.707z"/><path d="m33 16a1 1 0 0 1 -.707-.293l-6-6a1 1 0 0 1 1.414-1.414l6 6a1 1 0 0 1 -.707 1.707z"/><path d="m26 7h8v36h-8z" fill="#78777f"/><g fill="#aeadb3"><path d="m30.42 41h-2.84l-1.58-1.58v-2.84z"/><path d="m34 38.58v2.42h-.42l-7.58-7.58v-2.42h.42z"/><path d="m26 24.58 8 8v2.84l-8-8z"/><path d="m26 18.58 8 8v2.84l-8-8z"/><path d="m26 12.58 8 8v2.84l-8-8z"/><path d="m26 7h.42l7.58 7.58v2.84l-8-8z"/></g><path d="m56 40a1 1 0 0 0 -1 1h-34a1 1 0 0 0 -2 0v4a2 2 0 0 0 2 2h34a2 2 0 0 0 2-2v-4a1 1 0 0 0 -1-1z" fill="#57555c"/></g></svg>