<svg height="512" viewBox="0 0 64 64" width="512" xmlns="http://www.w3.org/2000/svg"><g id="_23_QR_Code" data-name="23 QR Code"><rect fill="#f5f5f5" height="44" rx="3" width="58" x="3" y="10"/><path d="m8.92 14.62a.757.757 0 0 0 -.09-.18l-.12-.15-.15-.12a.757.757 0 0 0 -.18-.09.636.636 0 0 0 -.18-.06.956.956 0 0 0 -.58.06 1.155 1.155 0 0 0 -.33.21l-.12.15a.757.757 0 0 0 -.09.18.636.636 0 0 0 -.06.18 1.355 1.355 0 0 0 -.02.2 1 1 0 0 0 .08.38.9.9 0 0 0 .54.54 1 1 0 0 0 .38.08 1.355 1.355 0 0 0 .2-.02.636.636 0 0 0 .18-.06.757.757 0 0 0 .18-.09l.15-.12a1.155 1.155 0 0 0 .21-.33 1 1 0 0 0 .08-.38 1.355 1.355 0 0 0 -.02-.2.636.636 0 0 0 -.06-.18z" fill="#ffa91f"/><path d="m11.29 14.29a1.052 1.052 0 0 0 -.29.71 1 1 0 0 0 .08.38 1.032 1.032 0 0 0 .21.33 1.576 1.576 0 0 0 .15.12.757.757 0 0 0 .18.09.636.636 0 0 0 .18.06 1.01 1.01 0 0 0 .4 0 .636.636 0 0 0 .18-.06.757.757 0 0 0 .18-.09 1.576 1.576 0 0 0 .15-.12 1.032 1.032 0 0 0 .21-.33 1 1 0 0 0 .08-.38 1 1 0 0 0 -1.71-.71z" fill="#ffa91f"/><path d="m16.92 14.62a1.155 1.155 0 0 0 -.21-.33.933.933 0 0 0 -.33-.21 1.041 1.041 0 0 0 -1.09.21 1.155 1.155 0 0 0 -.21.33.943.943 0 0 0 0 .76 1.155 1.155 0 0 0 .21.33 1.576 1.576 0 0 0 .15.12.757.757 0 0 0 .18.09.636.636 0 0 0 .18.06 1.355 1.355 0 0 0 .2.02.838.838 0 0 0 .38-.08 1.032 1.032 0 0 0 .33-.21 1.052 1.052 0 0 0 .29-.71 1 1 0 0 0 -.08-.38z" fill="#ffa91f"/><rect fill="#b1dcff" height="30" rx="2" width="30" x="25" y="17"/><g fill="#00a6ff"><path d="m34 27h-4a1 1 0 0 1 -1-1v-4a1 1 0 0 1 1-1h4a1 1 0 0 1 1 1v4a1 1 0 0 1 -1 1zm-3-2h2v-2h-2z"/><path d="m50 27h-4a1 1 0 0 1 -1-1v-4a1 1 0 0 1 1-1h4a1 1 0 0 1 1 1v4a1 1 0 0 1 -1 1zm-3-2h2v-2h-2z"/><path d="m34 43h-4a1 1 0 0 1 -1-1v-4a1 1 0 0 1 1-1h4a1 1 0 0 1 1 1v4a1 1 0 0 1 -1 1zm-3-2h2v-2h-2z"/><path d="m38 31h-8a1 1 0 0 1 0-2h7v-2a1 1 0 0 1 2 0v3a1 1 0 0 1 -1 1z"/><path d="m42 24a1 1 0 0 1 -1-1v-1a1 1 0 0 1 2 0v1a1 1 0 0 1 -1 1z"/><path d="m38 24a1 1 0 0 1 -1-1v-1a1 1 0 0 1 2 0v1a1 1 0 0 1 -1 1z"/><path d="m41 38h-3a1 1 0 0 1 -1-1v-2h-1a1 1 0 0 1 0-2h2a1 1 0 0 1 1 1v2h2a1 1 0 0 1 0 2z"/><path d="m32 35h-2a1 1 0 0 1 0-2h2a1 1 0 0 1 0 2z"/><path d="m44 43a1 1 0 0 1 -1-1h-5a1 1 0 0 1 0-2h6a1 1 0 0 1 1 1v1a1 1 0 0 1 -1 1z"/><rect height="4" rx="1" width="4" x="47" y="38"/><path d="m50 31h-4a1 1 0 0 1 0-2h4a1 1 0 0 1 0 2z"/><path d="m50 35h-1a1 1 0 0 1 0-2h1a1 1 0 0 1 0 2z"/><path d="m45 38a1 1 0 0 1 -1-1v-2h-2a1 1 0 0 1 -1-1v-7a1 1 0 0 1 2 0v6h2a1 1 0 0 1 1 1v3a1 1 0 0 1 -1 1z"/></g><path d="m22.732 22.318a1 1 0 0 0 -.732-.318h-12a1 1 0 0 0 -1 1.071l.934 13.072a2.007 2.007 0 0 0 1.997 1.857h8.138a2.007 2.007 0 0 0 2-1.857l.931-13.072a1 1 0 0 0 -.268-.753z" fill="#ffb74f"/><rect fill="#00a6ff" height="6" rx="2" width="12" x="10" y="40"/><path d="m18 27a1 1 0 0 1 -1-1v-5a1 1 0 0 0 -2 0v5a1 1 0 0 1 -2 0v-5a3 3 0 0 1 6 0v5a1 1 0 0 1 -1 1z" fill="#57555c"/></g></svg>