<svg height="512" viewBox="0 0 64 64" width="512" xmlns="http://www.w3.org/2000/svg"><g id="_24_Online_Payment" data-name="24 Online Payment"><rect fill="#f5f5f5" height="44" rx="3" width="58" x="3" y="13"/><path d="m8.92 17.62a.757.757 0 0 0 -.09-.18l-.12-.15-.15-.12a.757.757 0 0 0 -.18-.09.636.636 0 0 0 -.18-.06.956.956 0 0 0 -.58.06 1.155 1.155 0 0 0 -.33.21l-.12.15a.757.757 0 0 0 -.09.18.636.636 0 0 0 -.06.18 1.355 1.355 0 0 0 -.02.2 1 1 0 0 0 .08.38.9.9 0 0 0 .54.54 1 1 0 0 0 .38.08 1.355 1.355 0 0 0 .2-.02.636.636 0 0 0 .18-.06.757.757 0 0 0 .18-.09l.15-.12a1.155 1.155 0 0 0 .21-.33 1 1 0 0 0 .08-.38 1.355 1.355 0 0 0 -.02-.2.636.636 0 0 0 -.06-.18z" fill="#ffa91f"/><path d="m11.29 17.29a1.052 1.052 0 0 0 -.29.71 1 1 0 0 0 .08.38 1.032 1.032 0 0 0 .21.33 1.576 1.576 0 0 0 .15.12.757.757 0 0 0 .18.09.636.636 0 0 0 .18.06 1.01 1.01 0 0 0 .4 0 .636.636 0 0 0 .18-.06.757.757 0 0 0 .18-.09 1.576 1.576 0 0 0 .15-.12 1.032 1.032 0 0 0 .21-.33 1 1 0 0 0 .08-.38 1 1 0 0 0 -1.71-.71z" fill="#ffa91f"/><path d="m16.92 17.62a1.155 1.155 0 0 0 -.21-.33.933.933 0 0 0 -.33-.21 1.041 1.041 0 0 0 -1.09.21 1.155 1.155 0 0 0 -.21.33.942.942 0 0 0 0 .76 1.155 1.155 0 0 0 .21.33 1.576 1.576 0 0 0 .15.12.757.757 0 0 0 .18.09.636.636 0 0 0 .18.06 1.355 1.355 0 0 0 .2.02.838.838 0 0 0 .38-.08 1.032 1.032 0 0 0 .33-.21 1.052 1.052 0 0 0 .29-.71 1 1 0 0 0 -.08-.38z" fill="#ffa91f"/><rect fill="#fafbfb" height="42" rx="1" width="30" x="27" y="9"/><path d="m52 3h-20a5.006 5.006 0 0 0 -5 5v48a5.006 5.006 0 0 0 5 5h20a5.006 5.006 0 0 0 5-5v-48a5.006 5.006 0 0 0 -5-5zm-23 8h26v38h-26z" fill="#00a6ff"/><g fill="#006ef5"><path d="m47 8h-1a1 1 0 0 1 0-2h1a1 1 0 0 1 0 2z"/><path d="m42 8h-5a1 1 0 0 1 0-2h5a1 1 0 0 1 0 2z"/><circle cx="42" cy="55" r="3"/><path d="m50 56h-2a1 1 0 0 1 0-2h2a1 1 0 0 1 0 2z"/><path d="m36 56h-2a1 1 0 0 1 0-2h2a1 1 0 0 1 0 2z"/></g><path d="m43 29h-2a2 2 0 0 1 0-4h4a1 1 0 0 0 0-2h-2v-1a1 1 0 0 0 -2 0v1a4 4 0 0 0 0 8h2a2 2 0 0 1 0 4h-4a1 1 0 0 0 0 2h2v1a1 1 0 0 0 2 0v-1a4 4 0 0 0 0-8z" fill="#ffa91f"/><rect fill="#00a6ff" height="6" rx="2" width="18" x="7" y="28"/><path d="m24 38h-4a1 1 0 0 1 0-2h4a1 1 0 0 1 0 2z" fill="#57555c"/><path d="m16 38h-8a1 1 0 0 1 0-2h8a1 1 0 0 1 0 2z" fill="#57555c"/><path d="m24 42h-8a1 1 0 0 1 0-2h8a1 1 0 0 1 0 2z" fill="#57555c"/><path d="m12 42h-4a1 1 0 0 1 0-2h4a1 1 0 0 1 0 2z" fill="#57555c"/></g></svg>