<svg id="_25_Online_Bill" height="512" viewBox="0 0 64 64" width="512" xmlns="http://www.w3.org/2000/svg" data-name="25 Online Bill"><rect fill="#f5f5f5" height="44" rx="3" width="58" x="3" y="13"/><g fill="#ffa91f"><path d="m8.92 17.62a.757.757 0 0 0 -.09-.18l-.12-.15-.15-.12a.757.757 0 0 0 -.18-.09.636.636 0 0 0 -.18-.06.956.956 0 0 0 -.58.06 1.155 1.155 0 0 0 -.33.21l-.12.15a.757.757 0 0 0 -.09.18.636.636 0 0 0 -.06.18 1.355 1.355 0 0 0 -.02.2 1 1 0 0 0 .08.38.9.9 0 0 0 .54.54 1 1 0 0 0 .38.08 1.355 1.355 0 0 0 .2-.02.636.636 0 0 0 .18-.06.757.757 0 0 0 .18-.09l.15-.12a1.155 1.155 0 0 0 .21-.33 1 1 0 0 0 .08-.38 1.355 1.355 0 0 0 -.02-.2.636.636 0 0 0 -.06-.18z"/><path d="m11.29 17.29a1.052 1.052 0 0 0 -.29.71 1 1 0 0 0 .08.38 1.032 1.032 0 0 0 .21.33 1.576 1.576 0 0 0 .15.12.757.757 0 0 0 .18.09.636.636 0 0 0 .18.06 1.01 1.01 0 0 0 .4 0 .636.636 0 0 0 .18-.06.757.757 0 0 0 .18-.09 1.576 1.576 0 0 0 .15-.12 1.032 1.032 0 0 0 .21-.33 1 1 0 0 0 .08-.38 1 1 0 0 0 -1.71-.71z"/><path d="m16.92 17.62a1.155 1.155 0 0 0 -.21-.33.933.933 0 0 0 -.33-.21 1.041 1.041 0 0 0 -1.09.21 1.155 1.155 0 0 0 -.21.33.942.942 0 0 0 0 .76 1.155 1.155 0 0 0 .21.33 1.576 1.576 0 0 0 .15.12.757.757 0 0 0 .18.09.636.636 0 0 0 .18.06 1.355 1.355 0 0 0 .2.02.838.838 0 0 0 .38-.08 1.032 1.032 0 0 0 .33-.21 1.052 1.052 0 0 0 .29-.71 1 1 0 0 0 -.08-.38z"/></g><path d="m20.732 25.318a1 1 0 0 0 -.732-.318h-12a1 1 0 0 0 -1 1.071l.934 13.072a2.007 2.007 0 0 0 1.997 1.857h8.138a2.007 2.007 0 0 0 2-1.857l.931-13.072a1 1 0 0 0 -.268-.753z" fill="#ffb74f"/><rect fill="#00a6ff" height="6" rx="2" width="12" x="8" y="43"/><path d="m16 30a1 1 0 0 1 -1-1v-5a1 1 0 0 0 -2 0v5a1 1 0 0 1 -2 0v-5a3 3 0 0 1 6 0v5a1 1 0 0 1 -1 1z" fill="#57555c"/><path d="m53.585 7.188a.991.991 0 0 0 -.9-.136l-5.685 1.894-5.684-1.894a.991.991 0 0 0 -.632 0l-5.684 1.894-5.684-1.894a.99.99 0 0 0 -.9.136 1 1 0 0 0 -.416.812v38a1 1 0 0 0 1 1h24a1 1 0 0 0 1-1v-38a1 1 0 0 0 -.415-.812z" fill="#e1e1e3"/><path d="m37 20h-2a1 1 0 0 1 0-2h3a1 1 0 0 0 0-2h-1a1 1 0 0 0 -2 0 3 3 0 0 0 0 6h2a1 1 0 0 1 0 2h-3a1 1 0 0 0 0 2h1a1 1 0 0 0 2 0 3 3 0 0 0 0-6z" fill="#ffb74f"/><path d="m49 18h-5a1 1 0 0 1 0-2h5a1 1 0 0 1 0 2z" fill="#78777f"/><path d="m49 22h-5a1 1 0 0 1 0-2h5a1 1 0 0 1 0 2z" fill="#78777f"/><path d="m49 26h-5a1 1 0 0 1 0-2h5a1 1 0 0 1 0 2z" fill="#78777f"/><rect fill="#ffb74f" height="6" rx="2" width="18" x="32" y="31"/><path d="m49 41h-16a1 1 0 0 1 0-2h16a1 1 0 0 1 0 2z" fill="#78777f"/><path d="m56 44a1 1 0 0 0 -1 1h-28a1 1 0 0 0 -2 0v4a2 2 0 0 0 2 2h28a2 2 0 0 0 2-2v-4a1 1 0 0 0 -1-1z" fill="#ffc473"/></svg>