<?xml version="1.0" encoding="iso-8859-1"?>
<!-- Generator: Adobe Illustrator 19.0.0, SVG Export Plug-In . SVG Version: 6.00 Build 0)  -->
<svg version="1.1" id="Capa_1" xmlns="http://www.w3.org/2000/svg" xmlns:xlink="http://www.w3.org/1999/xlink" x="0px" y="0px"
	 viewBox="0 0 512 512" style="enable-background:new 0 0 512 512;" xml:space="preserve">
<path style="fill:#34495E;" d="M511.987,255.995C511.987,397.379,397.389,512,255.992,512C114.627,512,0.013,397.371,0.013,255.995
	S114.627,0,255.995,0C397.391,0,511.987,114.609,511.987,255.995z"/>
<path style="fill:#FFFFFF;" d="M477.665,255.995c0,122.419-99.246,221.678-221.673,221.678c-122.406,0-221.66-99.259-221.66-221.678
	S133.581,34.353,255.995,34.353C378.414,34.353,477.665,133.573,477.665,255.995z"/>
<path style="fill:#80DCFF;" d="M255.995,34.353c-82.867,0-155.069,45.507-193.085,112.876l192.87,108.447l185.697-120.998
	C401.892,74.255,333.642,34.353,255.995,34.353z"/>
<g>
	<rect x="249.805" y="56.397" style="fill:#283A4D;" width="12.411" height="42.542"/>
	<rect x="56.371" y="249.805" style="fill:#283A4D;" width="42.56" height="12.38"/>
	<rect x="249.805" y="413.056" style="fill:#283A4D;" width="12.411" height="42.578"/>
	<rect x="413.056" y="249.805" style="fill:#283A4D;" width="42.578" height="12.38"/>
	<path style="fill:#283A4D;" d="M358.223,180.931l-106.094,69.11c-3.272,2.168-4.209,6.566-2.058,9.838
		c2.15,3.29,6.548,4.221,9.812,2.071l106.102-69.128L358.223,180.931z"/>
	<path style="fill:#283A4D;" d="M259.466,249.825l-70.536-39.762l-6.958,12.38l70.548,39.741c3.418,1.917,7.741,0.704,9.667-2.688
		C264.115,256.061,262.897,251.756,259.466,249.825z"/>
</g>
<g>
	
		<rect x="145.85" y="317.919" transform="matrix(-0.2401 0.9707 -0.9707 -0.2401 608.9568 164.7331)" style="fill:#FF7059;" width="188.305" height="5.581"/>
	<path style="fill:#FF7059;" d="M270.892,255.995c0,8.228-6.671,14.897-14.879,14.897c-8.215,0-14.886-6.671-14.886-14.897
		c0-8.197,6.671-14.866,14.886-14.866C264.22,241.126,270.892,247.798,270.892,255.995z"/>
</g>
<g>
	<polygon style="fill:#283A4D;" points="289.83,76.319 285.686,75.584 288.607,59 292.736,59.756 	"/>
	<polygon style="fill:#283A4D;" points="320.497,84.9 316.57,83.461 322.291,67.686 326.272,69.12 	"/>
	<polygon style="fill:#283A4D;" points="349.243,98.714 345.618,96.594 353.984,82.045 357.629,84.165 	"/>
	<polygon style="fill:#283A4D;" points="375.124,117.286 371.945,114.578 382.72,101.74 385.93,104.404 	"/>
	
		<rect x="394.129" y="130.952" transform="matrix(-0.7645 0.6446 -0.6446 -0.7645 796.0349 -24.689)" style="fill:#283A4D;" width="16.796" height="4.214"/>
	
		<rect x="413.271" y="158.296" transform="matrix(-0.8664 0.4994 -0.4994 -0.8664 867.1021 88.7825)" style="fill:#283A4D;" width="16.804" height="4.201"/>
	
		<rect x="427.355" y="188.467" transform="matrix(-0.9391 0.3436 -0.3436 -0.9391 910.439 219.8204)" style="fill:#283A4D;" width="16.778" height="4.214"/>
	<polygon style="fill:#283A4D;" points="436.434,226.296 435.717,222.2 452.244,219.259 452.974,223.406 	"/>
	<polygon style="fill:#283A4D;" points="435.717,289.83 436.442,285.647 452.948,288.589 452.244,292.741 	"/>
	<polygon style="fill:#283A4D;" points="427.113,320.489 428.557,316.575 444.314,322.278 442.88,326.254 	"/>
	
		<rect x="419.538" y="343.2" transform="matrix(-0.5012 0.8653 -0.8653 -0.5012 937.2078 162.9736)" style="fill:#283A4D;" width="4.191" height="16.796"/>
	<polygon style="fill:#283A4D;" points="394.714,375.112 397.427,371.914 410.291,382.702 407.578,385.943 	"/>
	
		<rect x="376.859" y="394.087" transform="matrix(-0.7659 0.643 -0.643 -0.7659 927.9678 467.0709)" style="fill:#283A4D;" width="4.183" height="16.784"/>
	<polygon style="fill:#283A4D;" points="345.618,415.393 349.261,413.292 357.655,427.84 353.984,429.972 	"/>
	<polygon style="fill:#283A4D;" points="316.582,428.539 320.509,427.087 326.272,442.88 322.309,444.332 	"/>
	<polygon style="fill:#283A4D;" points="285.696,436.398 289.83,435.717 292.736,452.262 288.607,452.961 	"/>
	
		<rect x="214.358" y="442.323" transform="matrix(-0.1752 0.9845 -0.9845 -0.1752 699.3333 302.9737)" style="fill:#283A4D;" width="16.801" height="4.196"/>
	<polygon style="fill:#283A4D;" points="191.511,427.105 195.448,428.539 189.709,444.332 185.728,442.86 	"/>
	<polygon style="fill:#283A4D;" points="162.77,413.292 166.4,415.406 158.016,429.972 154.371,427.84 	"/>
	
		<rect x="124.713" y="400.375" transform="matrix(-0.6455 0.7638 -0.7638 -0.6455 526.417 560.6007)" style="fill:#283A4D;" width="16.779" height="4.196"/>
	<polygon style="fill:#283A4D;" points="114.604,371.932 117.286,375.148 104.44,385.943 101.722,382.684 	"/>
	<polygon style="fill:#283A4D;" points="96.612,345.6 98.696,349.243 84.165,357.66 82.076,354.002 	"/>
	<polygon style="fill:#283A4D;" points="83.474,316.575 84.887,320.509 69.146,326.254 67.712,322.278 	"/>
	
		<rect x="59.233" y="287.098" transform="matrix(-0.9842 0.1769 -0.1769 -0.9842 185.348 561.8665)" style="fill:#283A4D;" width="16.788" height="4.196"/>
	<polygon style="fill:#283A4D;" points="76.314,222.2 75.571,226.296 59.026,223.406 59.799,219.259 	"/>
	<polygon style="fill:#283A4D;" points="84.887,191.491 83.474,195.43 67.694,189.704 69.151,185.746 	"/>
	
		<rect x="88.311" y="152.009" transform="matrix(-0.4994 0.8664 -0.8664 -0.4994 274.5382 162.1877)" style="fill:#283A4D;" width="4.201" height="16.804"/>
	<polygon style="fill:#283A4D;" points="117.286,136.863 114.578,140.05 101.709,129.28 104.458,126.065 	"/>
	<polygon style="fill:#283A4D;" points="140.086,114.578 136.876,117.286 126.07,104.404 129.298,101.74 	"/>
	<polygon style="fill:#283A4D;" points="166.4,96.594 162.757,98.678 154.353,84.165 158.029,82.045 	"/>
	<polygon style="fill:#283A4D;" points="195.418,83.448 191.503,84.864 185.728,69.11 189.727,67.686 	"/>
	<polygon style="fill:#283A4D;" points="226.335,75.584 222.18,76.27 219.259,59.756 223.411,59 	"/>
</g>
<path style="fill:#73C9ED;" d="M441.482,134.653l-8.945,5.819C394.744,83.013,329.751,44.974,256,44.974
	c-78.715,0-147.505,43.369-183.767,107.443l-9.311-5.207c11.884-21.071,27.075-39.939,44.9-56.049
	c1.777-1.592,3.615-3.185,5.453-4.716c3.676-3.062,7.411-6.065,11.333-8.942c1.715-1.226,3.43-2.511,5.146-3.676
	c3.676-2.573,7.473-5.023,11.333-7.35c1.226-0.796,2.511-1.531,3.799-2.266c10.168-5.942,20.887-11.087,32.036-15.314
	c1.715-0.673,3.492-1.285,5.207-1.9c2.204-0.796,4.472-1.531,6.676-2.204c9.065-2.941,18.437-5.268,27.994-6.922
	c1.408-0.307,2.819-0.489,4.227-0.735c11.395-1.838,23.094-2.757,34.977-2.757c2.388,0,4.716,0.061,7.045,0.123
	c12.864,0.369,25.416,1.9,37.612,4.411c1.838,0.369,3.615,0.735,5.391,1.165c2.511,0.55,5.023,1.165,7.473,1.838
	c1.777,0.489,3.553,0.98,5.33,1.531c8.207,2.388,16.233,5.268,24.079,8.637c1.347,0.55,2.688,1.165,4.037,1.777
	c1.285,0.55,2.639,1.165,3.927,1.838c2.022,0.919,4.042,1.9,5.998,2.941c2.266,1.103,4.416,2.266,6.615,3.492
	c1.659,0.98,3.308,1.9,4.969,2.88c4.037,2.388,8.026,4.9,11.878,7.534c1.838,1.226,3.681,2.511,5.514,3.858
	c1.838,1.347,3.615,2.696,5.453,4.042c1.777,1.347,3.492,2.757,5.268,4.227c1.715,1.408,3.43,2.819,5.146,4.349
	c1.654,1.469,3.369,2.941,5.023,4.472c1.654,1.531,3.241,3.123,4.838,4.657C422.799,109.23,432.845,121.421,441.482,134.653z"/>
<path style="fill:#E6E9EB;" d="M441.459,134.664l-8.919,5.806c21.745,33.201,34.486,72.893,34.486,115.528
	c0,116.324-94.702,211.026-211.026,211.026S44.974,372.324,44.974,256c0-37.612,9.923-73.016,27.259-103.583l-9.311-5.207
	c4.288-7.608,9.029-14.909,14.157-21.911C50.23,161.93,34.322,207.068,34.322,256c0,122.388,99.295,221.686,221.686,221.686
	S477.693,378.391,477.693,256C477.686,211.185,464.33,169.526,441.459,134.664z"/>
<g>
</g>
<g>
</g>
<g>
</g>
<g>
</g>
<g>
</g>
<g>
</g>
<g>
</g>
<g>
</g>
<g>
</g>
<g>
</g>
<g>
</g>
<g>
</g>
<g>
</g>
<g>
</g>
<g>
</g>
</svg>
