<?xml version="1.0" encoding="iso-8859-1"?>
<!DOCTYPE svg PUBLIC "-//W3C//DTD SVG 1.1//EN" "http://www.w3.org/Graphics/SVG/1.1/DTD/svg11.dtd">
<svg xmlns="http://www.w3.org/2000/svg" xmlns:xlink="http://www.w3.org/1999/xlink" version="1.1" viewBox="0 0 512 512" enable-background="new 0 0 512 512" width="512px" height="512px">
  <g>
    <path d="m256,128c-44.109,0-80,35.891-80,80v256c0,8.844 7.164,16 16,16s16-7.156 16-16v-256c0-26.469 21.531-48 48-48 26.469,0 48,21.531 48,48 0,8.836 7.164,16 16,16s16-7.164 16-16c0-44.109-35.891-80-80-80z" fill="#424242"/>
    <path d="m256,192c-8.836,0-16,7.164-16,16v144c0,8.836 7.164,16 16,16s16-7.164 16-16v-144c0-8.836-7.164-16-16-16z" fill="#424242"/>
    <path d="m256,400c-8.836,0-16,7.164-16,16v80c0,8.844 7.164,16 16,16s16-7.156 16-16v-80c0-8.836-7.164-16-16-16z" fill="#424242"/>
    <path d="m320,256c-8.836,0-16,7.164-16,16v192c0,8.844 7.164,16 16,16s16-7.156 16-16v-192c0-8.836-7.164-16-16-16z" fill="#424242"/>
    <path d="m128,288c-8.836,0-16,7.164-16,16v112c0,8.844 7.164,16 16,16s16-7.156 16-16v-112c0-8.836-7.164-16-16-16z" fill="#424242"/>
    <path d="m448,256c-8.836,0-16,7.164-16,16v80c0,8.836 7.164,16 16,16s16-7.164 16-16v-80c0-8.836-7.164-16-16-16z" fill="#424242"/>
    <path d="m368.711,145.203c-8.195,3.32-12.148,12.641-8.836,20.836 5.391,13.32 8.125,27.438 8.125,41.961v208c0,8.844 7.164,16 16,16s16-7.156 16-16v-208c0-18.656-3.516-36.813-10.453-53.961-3.313-8.187-12.594-12.141-20.836-8.836z" fill="#424242"/>
    <path d="M256,64c-79.398,0-144,64.602-144,144v32c0,8.836,7.164,16,16,16s16-7.164,16-16v-32c0-61.758,50.242-112,112-112   c25.789,0,50.008,8.508,70.055,24.617c6.914,5.523,16.961,4.438,22.5-2.453c5.531-6.891,4.43-16.961-2.453-22.5   C320.68,75.242,288.68,64,256,64z" fill="#424242"/>
    <path d="m185.547,46.664c22.258-9.734 45.961-14.664 70.453-14.664 97.047,0 176,78.953 176,176 0,8.836 7.164,16 16,16s16-7.164 16-16c0-114.695-93.305-208-208-208-28.93,0-56.945,5.836-83.266,17.336-8.102,3.539-11.797,12.977-8.258,21.07 3.555,8.102 12.993,11.758 21.071,8.258z" fill="#424242"/>
    <path d="m123.563,68.078c-6.594-5.906-16.695-5.328-22.594,1.25-34.156,38.164-52.969,87.406-52.969,138.672v144c0,8.836 7.164,16 16,16s16-7.164 16-16v-144c0-43.375 15.914-85.047 44.813-117.328 5.89-6.586 5.335-16.703-1.25-22.594z" fill="#424242"/>
  </g>
</svg>
