<?xml version="1.0" encoding="iso-8859-1"?>
<!-- Generator: Adobe Illustrator 19.0.0, SVG Export Plug-In . SVG Version: 6.00 Build 0)  -->
<svg version="1.1" id="Capa_1" xmlns="http://www.w3.org/2000/svg" xmlns:xlink="http://www.w3.org/1999/xlink" x="0px" y="0px"
	 viewBox="0 0 511.996 511.996" style="enable-background:new 0 0 511.996 511.996;" xml:space="preserve">
<circle style="fill:#81D4FA;" cx="236.728" cy="274.644" r="232.086"/>
<g>
	<path style="fill:#0277BD;" d="M236.728,511.371C106.193,511.371,0,405.178,0,274.644S106.193,37.916,236.728,37.916
		s236.728,106.202,236.728,236.728S367.262,511.371,236.728,511.371z M236.728,47.2C111.318,47.2,9.283,149.234,9.283,274.644
		c0,125.419,102.034,227.444,227.444,227.444c125.419,0,227.444-102.025,227.444-227.444C464.172,149.234,362.147,47.2,236.728,47.2
		z"/>
	<path style="fill:#0277BD;" d="M468.813,279.285H4.642c-2.562,0-4.642-2.079-4.642-4.642s2.079-4.642,4.642-4.642h464.172
		c2.562,0,4.642,2.079,4.642,4.642S471.376,279.285,468.813,279.285z"/>
</g>
<path style="fill:#E1F5FE;" d="M387.119,127.975c-1.198,0-2.395-0.455-3.296-1.374c-38.925-39.362-91.006-61.131-146.623-61.289
	c-0.195,0-0.399,0-0.594,0c-55.858,0-108.356,21.76-147.904,61.308c-1.81,1.81-4.753,1.81-6.563,0s-1.81-4.753,0-6.563
	c41.302-41.302,96.139-64.019,154.467-64.019c0.214,0,0.408,0,0.622,0c58.114,0.167,112.525,22.902,153.195,64.037
	c1.801,1.82,1.782,4.762-0.037,6.563C389.477,127.52,388.298,127.975,387.119,127.975z"/>
<path style="fill:#29B6F6;" d="M236.858,493.269c-0.214,0-0.408,0-0.622,0c-58.114-0.167-112.525-22.911-153.195-64.037
	c-1.801-1.82-1.782-4.762,0.037-6.563c1.829-1.801,4.762-1.782,6.563,0.037c38.925,39.362,91.006,61.131,146.623,61.289
	c0.195,0,0.399,0,0.594,0c55.849,0,108.356-21.76,147.904-61.308c1.81-1.81,4.753-1.81,6.563,0c1.81,1.81,1.81,4.753,0,6.563
	C350.032,470.543,295.185,493.269,236.858,493.269z"/>
<g>
	<path style="fill:#0277BD;" d="M236.728,511.371c-66.544,0-120.685-106.193-120.685-236.728S170.184,37.916,236.728,37.916
		s120.685,106.193,120.685,236.728S303.271,511.371,236.728,511.371z M236.728,47.2c-61.428,0-111.401,102.034-111.401,227.444
		c0,125.419,49.973,227.444,111.401,227.444s111.401-102.025,111.401-227.444C348.129,149.234,298.156,47.2,236.728,47.2z"/>
	<path style="fill:#0277BD;" d="M236.728,511.371c-67.862,0-132.066-28.658-176.153-78.621c-0.919-1.04-1.328-2.451-1.105-3.825
		c0.223-1.365,1.058-2.562,2.265-3.268c43.558-25.177,107.344-39.622,174.993-39.622s131.426,14.445,174.993,39.622
		c1.207,0.696,2.042,1.894,2.256,3.268c0.223,1.374-0.186,2.785-1.095,3.825C368.794,482.713,304.59,511.371,236.728,511.371z
		 M71.408,430.884c42.165,45.322,102.09,71.204,165.319,71.204s123.145-25.882,165.31-71.204
		c-42.008-22.642-101.83-35.556-165.31-35.556S113.425,408.242,71.408,430.884z"/>
	<path style="fill:#0277BD;" d="M236.728,163.242c-67.639,0-131.426-14.436-174.993-39.612c-1.207-0.696-2.033-1.903-2.265-3.277
		c-0.223-1.374,0.186-2.776,1.105-3.825c44.087-49.954,108.291-78.612,176.153-78.612s132.066,28.658,176.153,78.621
		c0.919,1.049,1.328,2.451,1.095,3.825c-0.214,1.374-1.049,2.572-2.256,3.277C368.144,148.807,304.367,163.242,236.728,163.242z
		 M71.408,118.403c42.026,22.642,101.839,35.565,165.319,35.565s123.284-12.913,165.31-35.565
		C359.872,73.082,299.957,47.2,236.728,47.2S113.583,73.082,71.408,118.403z"/>
	<path style="fill:#0277BD;" d="M236.728,511.371c-2.562,0-4.642-2.079-4.642-4.642V42.558c0-2.562,2.079-4.642,4.642-4.642
		c2.562,0,4.642,2.079,4.642,4.642V506.73C241.369,509.301,239.29,511.371,236.728,511.371z"/>
</g>
<ellipse style="fill:#EEEEEE;" cx="436.321" cy="212.445" rx="69.626" ry="23.209"/>
<path style="fill:#0277BD;" d="M436.321,240.295c-36.911,0-74.267-9.562-74.267-27.85s37.357-27.85,74.267-27.85
	s74.267,9.562,74.267,27.85S473.232,240.295,436.321,240.295z M436.321,193.878c-39.668,0-64.984,11.001-64.984,18.567
	c0,7.566,25.316,18.567,64.984,18.567s64.984-11.001,64.984-18.567C501.305,204.879,475.99,193.878,436.321,193.878z"/>
<path style="fill:#EC407A;" d="M388.048,24.919L388.048,24.919c-23.209,22.28-27.85,57.557-11.14,85.408l60.342,102.118
	l60.342-102.118c16.71-27.85,11.14-63.127-11.14-85.408l0,0C457.673-1.074,414.97-1.074,388.048,24.919z"/>
<path style="fill:#0277BD;" d="M437.25,217.086c-1.643,0-3.166-0.863-4.001-2.284l-60.342-102.118
	c-17.852-29.753-12.96-67.231,11.92-91.108c28.871-27.897,73.924-27.943,104.736-0.102c24.638,24.629,29.503,62.088,12.003,91.238
	l-60.324,102.099C440.406,216.223,438.884,217.086,437.25,217.086z M436.609,9.927c-16.441,0-32.678,6.108-45.34,18.344
	c-0.009,0-0.009,0-0.009,0.009c-21.742,20.86-26.003,53.621-10.379,79.67l56.369,95.369l56.341-95.35
	c15.318-25.52,11.029-58.309-10.416-79.763C469.686,16.026,453.041,9.927,436.609,9.927z M388.048,24.919h0.093H388.048z"/>
<circle style="fill:#EEEEEE;" cx="436.321" cy="75.013" r="27.85"/>
<path style="fill:#0277BD;" d="M436.321,107.542c-17.917,0-32.492-14.575-32.492-32.492s14.575-32.492,32.492-32.492
	s32.492,14.575,32.492,32.492S454.238,107.542,436.321,107.542z M436.321,51.841c-12.802,0-23.209,10.416-23.209,23.209
	s10.407,23.209,23.209,23.209S459.53,87.842,459.53,75.05S449.123,51.841,436.321,51.841z"/>
<rect x="3.901" y="382.748" transform="matrix(-0.7071 0.7071 -0.7071 -0.7071 468.0387 618.0443)" style="fill:#EEEEEE;" width="204.234" height="46.417"/>
<path style="fill:#0277BD;" d="M50.196,499.191c-1.235,0-2.414-0.492-3.286-1.355L14.102,465.01c-1.81-1.81-1.81-4.753,0-6.563
	l144.413-144.422c1.745-1.745,4.827-1.745,6.563,0l32.817,32.817c1.81,1.81,1.81,4.753,0,6.563L53.482,497.827
	C52.609,498.699,51.43,499.191,50.196,499.191z M23.942,461.733l26.254,26.254l137.85-137.859l-26.254-26.254L23.942,461.733z"/>
<ellipse style="fill:#EEEEEE;" cx="236.717" cy="274.642" rx="92.833" ry="92.833"/>
<path style="fill:#0277BD;" d="M236.728,372.12c-26.031,0-50.511-10.138-68.92-28.547s-28.556-42.889-28.556-68.93
	s10.137-50.511,28.556-68.92c18.409-18.409,42.889-28.556,68.92-28.556c26.04,0,50.52,10.137,68.92,28.556
	c18.409,18.409,28.547,42.889,28.547,68.92s-10.137,50.511-28.547,68.93C287.239,361.991,262.758,372.12,236.728,372.12z
	 M236.728,186.451c-23.552,0-45.702,9.172-62.357,25.836l0,0c-16.664,16.654-25.836,38.805-25.836,62.357
	c0,23.561,9.172,45.712,25.836,62.366c16.664,16.654,38.805,25.827,62.357,25.827c23.561,0,45.702-9.172,62.357-25.827
	c16.654-16.655,25.827-38.805,25.827-62.366c0-23.561-9.172-45.702-25.827-62.357C282.43,195.632,260.28,186.451,236.728,186.451z
	 M171.084,209.01h0.093H171.084z"/>
<ellipse style="fill:#EEEEEE;" cx="236.717" cy="274.642" rx="64.983" ry="64.983"/>
<path style="fill:#0277BD;" d="M236.728,344.269c-18.595,0-36.085-7.241-49.23-20.396c-27.145-27.145-27.145-71.315,0-98.46l0,0
	c27.154-27.154,71.334-27.145,98.46,0c27.145,27.145,27.145,71.315,0,98.46C272.812,337.028,255.322,344.269,236.728,344.269z
	 M194.052,231.977c-23.524,23.533-23.524,61.809,0,85.333c11.4,11.4,26.551,17.676,42.667,17.676s31.276-6.285,42.667-17.676
	c23.524-23.524,23.524-61.8,0-85.333C255.87,208.453,217.585,208.453,194.052,231.977L194.052,231.977z"/>
<path style="fill:#FFFFFF;" d="M204.236,246.793c-1.188,0-2.377-0.455-3.286-1.355c-1.81-1.81-1.81-4.753,0-6.563
	c9.859-9.859,22.726-15.281,36.233-15.281c13.507,0,26.383,5.431,36.233,15.281c1.81,1.81,1.81,4.753,0,6.563
	c-1.81,1.81-4.753,1.81-6.563,0c-8.104-8.104-18.641-12.57-29.67-12.57s-21.565,4.456-29.67,12.57
	C206.612,246.348,205.424,246.793,204.236,246.793z"/>
<path style="fill:#BDBDBD;" d="M236.263,325.656c-13.034,0-26.077-5.078-36.233-15.243c-1.81-1.81-1.81-4.753,0-6.563
	c1.81-1.81,4.753-1.81,6.563,0c16.654,16.654,42.713,16.654,59.349,0c1.81-1.81,4.753-1.81,6.563,0c1.81,1.81,1.81,4.753,0,6.563
	C262.341,320.587,249.297,325.656,236.263,325.656z"/>
<path style="fill:#FFA726;" d="M128.111,389.758l-6.498-6.498c-11.14-11.14-28.779-11.14-38.99,0l-59.414,58.486
	c-11.14,11.14-11.14,28.779,0,38.99l6.498,7.427c11.14,11.14,28.779,11.14,38.99,0l59.414-59.414
	C139.252,417.609,139.252,399.97,128.111,389.758z"/>
<path style="fill:#0277BD;" d="M49.564,501.169c-8.541,0-16.942-3.518-23.134-9.72l-6.712-7.65
	c-5.821-5.292-9.321-13.062-9.497-21.519c-0.195-8.764,3.351-17.453,9.71-23.803l59.442-58.513
	c5.487-5.997,13.257-9.497,21.714-9.683c8.587,0.037,17.453,3.342,23.812,9.71l6.424,6.433c6.127,5.644,9.599,13.377,9.775,21.807
	c0.195,8.773-3.351,17.453-9.71,23.803l-59.414,59.414c-5.514,6.025-13.294,9.525-21.742,9.71
	C50.01,501.159,49.787,501.169,49.564,501.169z M101.784,379.546c-0.167,0-0.334,0-0.501,0.009
	c-5.895,0.13-11.307,2.553-15.243,6.842L26.458,445.05c-4.623,4.623-7.102,10.667-6.963,17.017
	c0.13,5.904,2.553,11.316,6.842,15.253l6.851,7.789c4.437,4.428,10.555,7.13,16.831,6.768c5.904-0.13,11.317-2.553,15.243-6.842
	l59.553-59.563c4.642-4.642,7.13-10.695,6.99-17.044c-0.13-5.895-2.553-11.307-6.842-15.234c-0.046-0.056-0.102-0.102-0.149-0.148
	l-6.498-6.498C113.806,382.025,107.948,379.546,101.784,379.546z"/>
<g>
</g>
<g>
</g>
<g>
</g>
<g>
</g>
<g>
</g>
<g>
</g>
<g>
</g>
<g>
</g>
<g>
</g>
<g>
</g>
<g>
</g>
<g>
</g>
<g>
</g>
<g>
</g>
<g>
</g>
</svg>
