<svg height="512pt" viewBox="-61 0 511 512" width="512pt" xmlns="http://www.w3.org/2000/svg"><path d="m282.984375 52.964844h-282.484375v414.898437h282.484375zm0 0" fill="#28384c"/><path d="m282.984375 70.621094h-282.484375v-48.136719c0-12.421875 10.0625-22.484375 22.484375-22.484375h237.523437c12.410157 0 22.476563 10.0625 22.476563 22.484375zm0 0" fill="#e7eced"/><path d="m260.5 512h-237.515625c-12.421875 0-22.484375-10.0625-22.484375-22.484375v-48.136719h282.484375v48.136719c0 12.421875-10.066406 22.484375-22.484375 22.484375zm0 0" fill="#e7eced"/><path d="m177.050781 476.691406c0 19.5-15.808593 35.308594-35.308593 35.308594-19.503907 0-35.3125-15.808594-35.3125-35.308594 0-19.503906 15.808593-35.3125 35.3125-35.3125 19.5 0 35.308593 15.808594 35.308593 35.3125zm0 0" fill="#afb6bb"/><path d="m168.222656 44.136719h-52.964844c-4.871093 0-8.828124-3.953125-8.828124-8.828125 0-4.871094 3.957031-8.824219 8.828124-8.824219h52.964844c4.875 0 8.828125 3.953125 8.828125 8.824219 0 4.875-3.953125 8.828125-8.828125 8.828125zm0 0" fill="#afb6bb"/><path d="m106.429688 150.070312v211.859376c0 9.753906 7.910156 17.65625 17.65625 17.65625h247.171874c9.753907 0 17.65625-7.910157 17.65625-17.65625v-211.859376c0-9.753906-7.910156-17.65625-17.65625-17.65625h-247.171874c-9.746094 0-17.65625 7.910157-17.65625 17.65625zm0 0" fill="#366db6"/><path d="m35.808594 132.414062h35.3125v35.308594h-35.3125zm0 0" fill="#dd352e"/><path d="m35.808594 344.277344h35.3125v35.308594h-35.3125zm0 0" fill="#cb465f"/><path d="m35.808594 273.65625h35.3125v35.308594h-35.3125zm0 0" fill="#75348b"/><path d="m35.808594 203.035156h35.3125v35.308594h-35.3125zm0 0" fill="#ebba16"/><g fill="#fff"><path d="m168.222656 282.484375c-4.871094 0-8.824218-3.957031-8.824218-8.828125 0-4.875 3.953124-8.828125 8.824218-8.828125 9.472656 0 17.222656-7.496094 17.640625-16.871094l-5.394531-26.992187c-2.929688-14.65625.46875-29.953125 9.328125-41.960938 8.386719-11.367187 20.542969-18.402344 34.21875-19.808594 1.921875-.191406 3.925781-.296874 6-.296874 4.875 0 8.828125 3.953124 8.828125 8.824218 0 4.875-3.953125 8.828125-8.828125 8.828125-1.453125 0-2.851563.070313-4.191406.203125-8.667969.890625-16.417969 5.414063-21.8125 12.730469-5.914063 8.023437-8.183594 18.230469-6.234375 28.019531l5.589844 27.9375c.105468.574219.167968 1.148438.167968 1.730469 0 19.472656-15.835937 35.3125-35.3125 35.3125zm0 0"/><path d="m318.292969 229.515625c-4.871094 0-8.828125-3.953125-8.828125-8.824219 0-43.398437-50.820313-44.128906-52.984375-44.140625-4.871094-.015625-8.808594-3.980469-8.800781-8.84375.011718-4.875 3.957031-8.808593 8.820312-8.808593 24.425781 0 70.621094 12.914062 70.621094 61.792968 0 4.871094-3.957032 8.824219-8.828125 8.824219zm0 0"/><path d="m291.820312 353.101562c-2.851562 0-5.652343-1.375-7.355468-3.925781-2.699219-4.050781-1.605469-9.542969 2.445312-12.246093 16.402344-10.9375 22.539063-60.855469 22.554688-89.757813 0-4.871094 3.957031-8.828125 8.828125-8.828125 4.871093 0 8.828125 3.957031 8.828125 8.828125 0 8.617187-.855469 84.746094-30.410156 104.449219-1.511719 1.003906-3.214844 1.480468-4.890626 1.480468zm0 0"/><path d="m177.050781 326.621094c-4.871093 0-8.828125-3.957032-8.828125-8.828125 0-4.871094 3.957032-8.828125 8.828125-8.828125 34.746094 0 35.300781-50.8125 35.3125-52.972656.015625-4.863282 3.960938-8.8125 8.828125-8.8125h.007813c4.871093 0 8.816406 3.949218 8.816406 8.820312 0 24.425781-11.066406 70.621094-52.964844 70.621094zm0 0"/><path d="m221.199219 344.277344c-3.242188 0-6.355469-1.785156-7.902344-4.882813-2.179687-4.359375-.414063-9.667969 3.945313-11.847656 24.964843-12.480469 30.429687-62.25 30.429687-80.375 0-4.871094 3.957031-8.828125 8.828125-8.828125s8.828125 3.957031 8.828125 8.828125c0 3.109375-.460937 76.304687-40.191406 96.175781-1.261719.628906-2.613281.929688-3.9375.929688zm0 0"/><path d="m291.808594 273.65625c-4.871094 0-8.824219-3.957031-8.824219-8.828125 0-51.378906-25.558594-52.929687-26.644531-52.964844-19.472656 0-26.5 19.65625-26.789063 20.496094-1.589843 4.582031-6.59375 7.042969-11.195312 5.492187-4.597657-1.5625-7.078125-6.515624-5.542969-11.125.449219-1.332031 11.21875-32.519531 43.6875-32.519531 1.800781 0 44.136719.804688 44.136719 70.621094 0 4.871094-3.953125 8.828125-8.828125 8.828125zm0 0"/><path d="m256.507812 353.101562c-2.851562 0-5.648437-1.375-7.351562-3.925781-2.703125-4.050781-1.609375-9.542969 2.445312-12.246093 22.296876-14.863282 22.554688-36.578126 22.554688-36.792969 0-4.871094 3.953125-8.828125 8.828125-8.828125 4.871094 0 8.824219 3.957031 8.824219 8.828125 0 1.28125-.34375 31.445312-30.410156 51.484375-1.507813 1.003906-3.210938 1.480468-4.890626 1.480468zm0 0"/></g></svg>