<?xml version="1.0"?>
<svg xmlns="http://www.w3.org/2000/svg" height="512px" viewBox="-11 0 463 464" width="512px" class=""><g><path d="m256.5 0h-224c-17.671875 0-32 14.328125-32 32v400c0 17.671875 14.328125 32 32 32h224c17.671875 0 32-14.328125 32-32v-400c0-17.671875-14.328125-32-32-32zm0 0" fill="#5aaae7" data-original="#5AAAE7" class=""/><path d="m48.5 464h-16c-17.671875 0-32-14.328125-32-32v-400c0-17.671875 14.328125-32 32-32h16c-17.671875 0-32 14.328125-32 32v400c0 17.671875 14.328125 32 32 32zm0 0" fill="#3d9ae2" data-original="#3D9AE2"/><path d="m288.5 410.640625v10.71875c-5.234375 2.046875-10.574219 3.808594-16 5.28125-13.03125 3.574219-26.488281 5.378906-40 5.359375-63.546875.035156-120.402344-39.488281-142.511719-99.070312-22.109375-59.578126-4.796875-126.621094 43.390625-168.050782-43.609375 50.617188-49.039062 123.78125-13.375 180.28125 35.660156 56.496094 104.042969 83.070313 168.496094 65.480469zm0 0" fill="#3d9ae2" data-original="#3D9AE2"/><path d="m208.5 0v24c-.027344 8.824219-7.175781 15.972656-16 16h-96c-8.824219-.027344-15.972656-7.175781-16-16v-24zm0 0" fill="#ff9811" data-original="#FF9811" class=""/><path d="m400.5 264c0 68.542969-45.875 128.601562-112 146.640625-13.03125 3.574219-26.488281 5.378906-40 5.359375-83.949219 0-152-68.050781-152-152s68.050781-152 152-152c13.511719-.019531 26.96875 1.785156 40 5.359375 66.125 18.039063 112 78.097656 112 146.640625zm0 0" fill="#ffd422" data-original="#FFD422" class="active-path" data-old_color="#ffd422" style="fill:#C84646"/><path d="m88.5 64h16v16h-16zm0 0" fill="#1e81ce" data-original="#1E81CE"/><path d="m120.5 64h16v16h-16zm0 0" fill="#1e81ce" data-original="#1E81CE"/><path d="m152.5 64h16v16h-16zm0 0" fill="#1e81ce" data-original="#1E81CE"/><path d="m110.960938 130.0625 12.253906-10.285156 10.285156 12.257812-12.253906 10.285156zm0 0" fill="#3d9ae2" data-original="#3D9AE2"/><path d="m88.304688 154.761719 10.285156-12.257813 12.257812 10.289063-10.289062 12.253906zm0 0" fill="#3d9ae2" data-original="#3D9AE2"/><path d="m70.222656 182.933594 8-13.859375 13.855469 8-8 13.859375zm0 0" fill="#3d9ae2" data-original="#3D9AE2"/><path d="m57.34375 213.851562 5.46875-15.027343 15.035156 5.472656-5.46875 15.027344zm0 0" fill="#3d9ae2" data-original="#3D9AE2"/><path d="m50.03125 246.539062 2.777344-15.757812 15.757812 2.777344-2.777344 15.757812zm0 0" fill="#3d9ae2" data-original="#3D9AE2"/><path d="m48.5 264h16v16h-16zm0 0" fill="#3d9ae2" data-original="#3D9AE2"/><path d="m50.03125 297.460938 15.757812-2.773438 2.773438 15.757812-15.757812 2.773438zm0 0" fill="#3d9ae2" data-original="#3D9AE2"/><path d="m57.34375 330.15625 15.035156-5.472656 5.46875 15.027344-15.039062 5.472656zm0 0" fill="#3d9ae2" data-original="#3D9AE2"/><path d="m70.226562 361.070312 13.855469-7.996093 8 13.855469-13.859375 8zm0 0" fill="#3d9ae2" data-original="#3D9AE2"/><path d="m88.277344 389.285156 12.261718-10.28125 10.28125 12.257813-12.257812 10.28125zm0 0" fill="#3d9ae2" data-original="#3D9AE2"/><path d="m110.953125 413.941406 10.28125-12.257812 12.261719 10.28125-10.285156 12.257812zm0 0" fill="#3d9ae2" data-original="#3D9AE2"/><path d="m137.570312 434.285156 8-13.859375 13.855469 8-7.996093 13.859375zm0 0" fill="#3d9ae2" data-original="#3D9AE2"/><path d="m184.5 64h16v16h-16zm0 0" fill="#1e81ce" data-original="#1E81CE"/><g fill="#ffd422"><path d="m118.960938 122.0625 12.257812-10.285156 10.285156 12.257812-12.257812 10.285156zm0 0" data-original="#000000"/><path d="m96.304688 146.761719 10.285156-12.257813 12.257812 10.289063-10.289062 12.253906zm0 0" data-original="#000000"/><path d="m78.222656 174.929688 8-13.855469 13.855469 8-8 13.859375zm0 0" data-original="#000000"/><path d="m65.347656 205.851562 5.46875-15.027343 15.035156 5.476562-5.46875 15.027344zm0 0" data-original="#000000"/><path d="m58.03125 238.535156 2.777344-15.757812 15.753906 2.777344-2.777344 15.757812zm0 0" data-original="#000000"/><path d="m56.5 256h16v16h-16zm0 0" data-original="#000000"/><path d="m58.035156 289.457031 15.757813-2.773437 2.773437 15.757812-15.757812 2.773438zm0 0" data-original="#000000"/><path d="m65.347656 322.148438 15.039063-5.46875 5.464843 15.027343-15.035156 5.472657zm0 0" data-original="#000000"/><path d="m78.21875 353.070312 13.855469-7.996093 8 13.855469-13.855469 8zm0 0" data-original="#000000"/><path d="m96.273438 381.285156 12.261718-10.28125 10.28125 12.257813-12.257812 10.28125zm0 0" data-original="#000000"/><path d="m118.957031 405.9375 10.28125-12.261719 12.261719 10.28125-10.285156 12.261719zm0 0" data-original="#000000"/><path d="m145.578125 426.285156 8-13.859375 13.855469 8-8 13.859375zm0 0" data-original="#000000"/><path d="m378.183594 144.738281 12.257812-10.28125 10.28125 12.257813-12.257812 10.285156zm0 0" data-original="#000000"/><path d="m396.925781 169.066406 13.855469-7.996094 8 13.855469-13.859375 8zm0 0" data-original="#000000"/><path d="m411.148438 196.289062 15.035156-5.472656 5.472656 15.023438-15.035156 5.476562zm0 0" data-original="#000000"/><path d="m420.433594 225.558594 15.757812-2.773438 2.773438 15.757813-15.757813 2.773437zm0 0" data-original="#000000"/><path d="m424.5 256h16v16h-16zm0 0" data-original="#000000"/><path d="m420.4375 302.449219 2.777344-15.757813 15.757812 2.777344-2.777344 15.757812zm0 0" data-original="#000000"/><path d="m411.160156 331.714844 5.46875-15.027344 15.035156 5.472656-5.46875 15.027344zm0 0" data-original="#000000"/><path d="m396.921875 358.929688 8-13.855469 13.855469 8-8 13.855469zm0 0" data-original="#000000"/><path d="m378.257812 383.375 10.285157-12.253906 12.257812 10.285156-10.289062 12.257812zm0 0" data-original="#000000"/></g><path d="m312.5 72h48v16h-48zm0 0" fill="#ffa733" data-original="#FFA733"/><path d="m352.5 104h48v16h-48zm0 0" fill="#ffa733" data-original="#FFA733"/><path d="m400.5 24h-16v-16h-16v16h-16v16h16v16h16v-16h16zm0 0" fill="#ff9811" data-original="#FF9811" class=""/><path d="m360.5 408h-16v16h-16v16h16v16h16v-16h16v-16h-16zm0 0" fill="#ff9811" data-original="#FF9811" class=""/><path d="m305.058594 230.078125-33.917969 33.921875 33.917969 33.921875-22.636719 22.636719-33.921875-33.917969-33.921875 33.917969-22.636719-22.636719 33.917969-33.921875-33.917969-33.921875 22.636719-22.636719 33.921875 33.917969 33.921875-33.917969zm0 0" fill="#00ccb3" data-original="#00CCB3" class="" style="fill:#FFFFFF" data-old_color="#00ccb3"/><path d="m305.058594 230.078125-33.917969 33.921875 33.917969 33.921875-22.636719 22.636719-33.921875-33.917969-33.921875 33.917969-22.636719-22.636719 33.917969-33.921875-33.917969-33.921875 22.636719-22.636719 33.921875 33.917969 33.921875-33.917969zm0 0" fill="#00ccb3" data-original="#00CCB3" class="" style="fill:#FFFFFF" data-old_color="#00ccb3"/></g> </svg>
